<?xml version="1.0" encoding="UTF-8"?>
<svg xmlns="http://www.w3.org/2000/svg" xmlns:xlink="http://www.w3.org/1999/xlink" viewBox="0 0 50 50" version="1.1" fill="#da1c5c"><g id="surface1" fill="#da1c5c"><path style=" " d="M 24.9375 0.03125 C 22.289063 0.078125 20.421875 1.222656 19.65625 2.96875 C 18.953125 4.566406 19.113281 6.457031 19.5625 8.40625 C 19.296875 8.800781 19.113281 9.300781 19.1875 9.9375 C 19.273438 10.660156 19.480469 11.203125 19.8125 11.625 C 19.945313 11.792969 20.148438 11.796875 20.3125 11.90625 C 20.429688 12.453125 20.554688 13.019531 20.78125 13.46875 C 20.929688 13.761719 21.078125 14.019531 21.25 14.25 C 21.285156 14.300781 21.371094 14.328125 21.40625 14.375 C 21.410156 14.933594 21.386719 15.425781 21.34375 16 C 21.222656 16.261719 20.992188 16.515625 20.46875 16.8125 C 19.90625 17.132813 19.125 17.453125 18.28125 17.875 C 16.90625 18.5625 15.390625 19.6875 14.59375 21.59375 C 14.269531 21.382813 13.742188 21.160156 13.65625 20.96875 C 13.617188 20.410156 13.589844 19.921875 13.59375 19.375 C 13.628906 19.328125 13.714844 19.300781 13.75 19.25 C 13.921875 19.019531 14.070313 18.761719 14.21875 18.46875 C 14.445313 18.019531 14.570313 17.453125 14.6875 16.90625 C 14.851563 16.796875 15.054688 16.792969 15.1875 16.625 C 15.519531 16.203125 15.726563 15.660156 15.8125 14.9375 C 15.886719 14.300781 15.703125 13.800781 15.4375 13.40625 C 15.886719 11.457031 16.042969 9.570313 15.34375 7.96875 C 14.578125 6.21875 12.710938 5.046875 10.0625 5 C 8.925781 5 7.90625 5.347656 7.1875 6.0625 C 6.210938 6.261719 5.398438 6.726563 4.90625 7.40625 C 4.371094 8.148438 4.160156 9.007813 4.09375 9.84375 C 3.984375 11.261719 4.265625 12.558594 4.53125 13.46875 C 4.289063 13.855469 4.117188 14.332031 4.1875 14.9375 C 4.273438 15.660156 4.480469 16.203125 4.8125 16.625 C 4.9375 16.785156 5.125 16.796875 5.28125 16.90625 C 5.394531 17.449219 5.53125 17.988281 5.75 18.4375 C 5.890625 18.730469 6.050781 19.015625 6.21875 19.25 C 6.253906 19.300781 6.339844 19.328125 6.375 19.375 C 6.378906 19.933594 6.355469 20.425781 6.3125 21 C 6.171875 21.316406 5.953125 21.589844 5.46875 21.875 C 4.949219 22.183594 4.203125 22.476563 3.4375 22.875 C 1.902344 23.675781 0.167969 25.125 0 27.9375 C 0 27.957031 0 27.980469 0 28 L 0 39 C 0.00390625 39.0625 0.015625 39.125 0.03125 39.1875 C 0.03125 39.1875 0.464844 41.265625 2.40625 43.5625 C 4.347656 45.859375 7.792969 48.472656 13.75 49.9375 C 14.050781 50.015625 14.367188 49.949219 14.613281 49.757813 C 14.855469 49.570313 15 49.277344 15 48.96875 L 15 48 C 15.078125 46.910156 15.429688 46.21875 15.96875 45.65625 C 16.519531 45.082031 17.308594 44.640625 18.1875 44.25 C 19.066406 43.859375 20.027344 43.542969 20.90625 43.09375 C 21.785156 42.644531 22.675781 42.011719 23.0625 40.96875 C 23.09375 40.886719 23.113281 40.804688 23.125 40.71875 C 23.214844 39.703125 23.15625 39.003906 23.15625 38.15625 C 23.164063 37.777344 22.960938 37.425781 22.625 37.25 C 22.789063 37.335938 22.6875 37.28125 22.59375 37.15625 C 22.5 37.03125 22.394531 36.851563 22.28125 36.625 C 22.054688 36.171875 21.859375 35.589844 21.8125 35.15625 C 21.765625 34.71875 21.433594 34.363281 21 34.28125 C 21 34.277344 21 34.253906 21 34.25 C 20.949219 34.183594 20.8125 33.980469 20.75 33.46875 C 20.730469 33.296875 20.785156 33.222656 20.8125 33.1875 C 21.144531 32.945313 21.292969 32.523438 21.1875 32.125 C 20.644531 30.03125 20.609375 28.148438 21.125 26.96875 C 21.640625 25.792969 22.59375 25.050781 24.9375 25 C 24.957031 25 24.953125 25 24.96875 25 C 26.066406 25.011719 26.679688 25.355469 26.78125 25.53125 C 26.929688 25.800781 27.195313 25.984375 27.5 26.03125 C 28.230469 26.132813 28.605469 26.375 28.875 26.75 C 29.144531 27.125 29.292969 27.683594 29.34375 28.34375 C 29.445313 29.664063 29.054688 31.328125 28.8125 32.0625 C 28.675781 32.480469 28.828125 32.933594 29.1875 33.1875 C 29.207031 33.222656 29.238281 33.296875 29.21875 33.46875 C 29.15625 34 29.042969 34.222656 29 34.28125 C 28.566406 34.363281 28.234375 34.71875 28.1875 35.15625 C 28.140625 35.597656 27.972656 36.171875 27.75 36.625 C 27.640625 36.851563 27.527344 37.0625 27.4375 37.1875 C 27.390625 37.25 27.332031 37.300781 27.3125 37.3125 C 27.035156 37.503906 26.871094 37.820313 26.875 38.15625 C 26.875 39 26.8125 39.703125 26.90625 40.71875 C 26.917969 40.804688 26.9375 40.886719 26.96875 40.96875 C 27.355469 42.011719 28.25 42.644531 29.125 43.09375 C 30 43.542969 30.9375 43.859375 31.8125 44.25 C 32.6875 44.640625 33.484375 45.082031 34.03125 45.65625 C 34.566406 46.21875 34.921875 46.910156 35 48 L 35 48.96875 C 35 49.277344 35.144531 49.570313 35.386719 49.757813 C 35.632813 49.949219 35.949219 50.015625 36.25 49.9375 C 42.207031 48.472656 45.652344 45.859375 47.59375 43.5625 C 49.535156 41.265625 49.96875 39.1875 49.96875 39.1875 C 49.984375 39.125 49.996094 39.0625 50 39 L 50 28 C 50 27.980469 50 27.957031 50 27.9375 C 49.832031 25.125 48.097656 23.675781 46.5625 22.875 C 45.796875 22.476563 45.050781 22.183594 44.53125 21.875 C 44.046875 21.589844 43.828125 21.316406 43.6875 21 C 43.644531 20.425781 43.621094 19.933594 43.625 19.375 C 43.660156 19.328125 43.746094 19.300781 43.78125 19.25 C 43.949219 19.015625 44.109375 18.730469 44.25 18.4375 C 44.46875 17.988281 44.605469 17.449219 44.71875 16.90625 C 44.875 16.796875 45.0625 16.785156 45.1875 16.625 C 45.519531 16.203125 45.726563 15.660156 45.8125 14.9375 C 45.882813 14.332031 45.710938 13.855469 45.46875 13.46875 C 45.734375 12.558594 46.015625 11.257813 45.90625 9.84375 C 45.839844 9.007813 45.628906 8.148438 45.09375 7.40625 C 44.601563 6.726563 43.789063 6.261719 42.8125 6.0625 C 42.09375 5.347656 41.074219 5 39.9375 5 C 37.289063 5.046875 35.421875 6.21875 34.65625 7.96875 C 33.957031 9.570313 34.113281 11.457031 34.5625 13.40625 C 34.296875 13.800781 34.113281 14.300781 34.1875 14.9375 C 34.273438 15.660156 34.480469 16.203125 34.8125 16.625 C 34.945313 16.792969 35.148438 16.796875 35.3125 16.90625 C 35.429688 17.453125 35.554688 18.019531 35.78125 18.46875 C 35.929688 18.761719 36.078125 19.019531 36.25 19.25 C 36.285156 19.300781 36.371094 19.328125 36.40625 19.375 C 36.410156 19.921875 36.382813 20.410156 36.34375 20.96875 C 36.257813 21.160156 35.730469 21.382813 35.40625 21.59375 C 34.613281 19.6875 33.121094 18.5625 31.75 17.875 C 30.910156 17.453125 30.125 17.132813 29.5625 16.8125 C 29.039063 16.515625 28.808594 16.261719 28.6875 16 C 28.644531 15.425781 28.621094 14.933594 28.625 14.375 C 28.660156 14.328125 28.746094 14.300781 28.78125 14.25 C 28.949219 14.015625 29.109375 13.730469 29.25 13.4375 C 29.46875 12.988281 29.605469 12.449219 29.71875 11.90625 C 29.875 11.796875 30.0625 11.785156 30.1875 11.625 C 30.519531 11.203125 30.726563 10.660156 30.8125 9.9375 C 30.882813 9.332031 30.710938 8.855469 30.46875 8.46875 C 30.734375 7.558594 31.015625 6.257813 30.90625 4.84375 C 30.839844 4.007813 30.628906 3.148438 30.09375 2.40625 C 29.601563 1.726563 28.789063 1.261719 27.8125 1.0625 C 27.09375 0.347656 26.066406 0.03125 24.9375 0.03125 Z M 24.9375 2.03125 C 24.957031 2.03125 24.949219 2.03125 24.96875 2.03125 C 25.964844 2.042969 26.496094 2.324219 26.5625 2.4375 C 26.71875 2.714844 26.996094 2.898438 27.3125 2.9375 C 27.964844 3.027344 28.230469 3.265625 28.46875 3.59375 C 28.707031 3.921875 28.890625 4.402344 28.9375 5 C 29.03125 6.195313 28.660156 7.707031 28.4375 8.375 C 28.3125 8.777344 28.449219 9.210938 28.78125 9.46875 C 28.796875 9.488281 28.828125 9.542969 28.8125 9.6875 C 28.757813 10.144531 28.628906 10.328125 28.59375 10.375 C 28.195313 10.488281 27.910156 10.835938 27.875 11.25 C 27.832031 11.644531 27.636719 12.152344 27.4375 12.5625 C 27.335938 12.765625 27.234375 12.953125 27.15625 13.0625 C 27.078125 13.171875 26.976563 13.21875 27.15625 13.125 C 26.832031 13.296875 26.628906 13.632813 26.625 14 C 26.625 14.773438 26.601563 15.433594 26.6875 16.375 C 26.699219 16.460938 26.71875 16.542969 26.75 16.625 C 27.09375 17.546875 27.824219 18.140625 28.5625 18.5625 C 29.300781 18.984375 30.101563 19.285156 30.84375 19.65625 C 32.332031 20.402344 33.539063 21.210938 33.90625 23.3125 C 33.957031 23.613281 34.144531 23.875 34.414063 24.019531 C 34.679688 24.164063 35 24.179688 35.28125 24.0625 C 36.472656 23.578125 37.769531 23.003906 38.28125 21.625 C 38.3125 21.542969 38.332031 21.460938 38.34375 21.375 C 38.429688 20.433594 38.40625 19.773438 38.40625 19 C 38.410156 18.664063 38.246094 18.347656 37.96875 18.15625 C 37.972656 18.160156 37.9375 18.15625 37.9375 18.15625 C 37.914063 18.136719 37.878906 18.109375 37.84375 18.0625 C 37.761719 17.953125 37.664063 17.765625 37.5625 17.5625 C 37.355469 17.152344 37.167969 16.636719 37.125 16.25 C 37.089844 15.835938 36.804688 15.488281 36.40625 15.375 C 36.371094 15.328125 36.242188 15.144531 36.1875 14.6875 C 36.171875 14.542969 36.203125 14.488281 36.21875 14.46875 C 36.539063 14.230469 36.683594 13.824219 36.59375 13.4375 C 36.097656 11.519531 36.039063 9.808594 36.5 8.75 C 36.960938 7.699219 37.808594 7.046875 39.9375 7 C 39.957031 7 39.949219 7 39.96875 7 C 40.957031 7.011719 41.496094 7.316406 41.5625 7.4375 C 41.71875 7.714844 41.996094 7.898438 42.3125 7.9375 C 42.964844 8.027344 43.230469 8.265625 43.46875 8.59375 C 43.707031 8.921875 43.890625 9.402344 43.9375 10 C 44.03125 11.195313 43.660156 12.707031 43.4375 13.375 C 43.3125 13.777344 43.449219 14.210938 43.78125 14.46875 C 43.796875 14.488281 43.828125 14.542969 43.8125 14.6875 C 43.757813 15.144531 43.628906 15.328125 43.59375 15.375 C 43.195313 15.488281 42.910156 15.835938 42.875 16.25 C 42.832031 16.644531 42.636719 17.152344 42.4375 17.5625 C 42.335938 17.765625 42.234375 17.953125 42.15625 18.0625 C 42.078125 18.171875 41.976563 18.21875 42.15625 18.125 C 41.832031 18.296875 41.628906 18.632813 41.625 19 C 41.625 19.773438 41.601563 20.4375 41.6875 21.375 C 41.699219 21.460938 41.71875 21.542969 41.75 21.625 C 42.09375 22.550781 42.820313 23.171875 43.53125 23.59375 C 44.242188 24.015625 44.96875 24.28125 45.625 24.625 C 46.921875 25.300781 47.855469 25.941406 48 28 C 48 28.027344 48 28.035156 48 28.0625 L 48 38.90625 C 47.972656 39.035156 47.65625 40.394531 46.0625 42.28125 C 44.523438 44.105469 41.726563 46.21875 36.9375 47.625 C 36.785156 46.234375 36.242188 45.09375 35.46875 44.28125 C 34.632813 43.40625 33.601563 42.871094 32.625 42.4375 C 31.648438 42.003906 30.71875 41.667969 30.03125 41.3125 C 29.382813 40.980469 29.054688 40.671875 28.90625 40.34375 C 28.855469 39.683594 28.871094 39.140625 28.875 38.5 C 28.914063 38.449219 28.992188 38.398438 29.03125 38.34375 C 29.210938 38.09375 29.378906 37.816406 29.53125 37.5 C 29.773438 37.007813 29.941406 36.40625 30.0625 35.8125 C 30.234375 35.699219 30.425781 35.675781 30.5625 35.5 C 30.910156 35.058594 31.125 34.496094 31.21875 33.71875 C 31.296875 33.066406 31.105469 32.5625 30.84375 32.15625 C 31.132813 31.171875 31.464844 29.730469 31.34375 28.1875 C 31.273438 27.289063 31.039063 26.382813 30.46875 25.59375 C 29.949219 24.875 29.097656 24.371094 28.0625 24.15625 C 27.308594 23.355469 26.191406 23 24.9375 23 C 22.078125 23.050781 20.101563 24.28125 19.28125 26.15625 C 18.523438 27.886719 18.691406 29.964844 19.1875 32.09375 C 18.898438 32.503906 18.699219 33.03125 18.78125 33.71875 C 18.875 34.496094 19.089844 35.089844 19.4375 35.53125 C 19.578125 35.710938 19.792969 35.695313 19.96875 35.8125 C 20.09375 36.410156 20.222656 37.039063 20.46875 37.53125 C 20.625 37.847656 20.816406 38.128906 21 38.375 C 21.039063 38.425781 21.117188 38.453125 21.15625 38.5 C 21.160156 39.140625 21.175781 39.683594 21.125 40.34375 C 20.976563 40.671875 20.652344 40.976563 20 41.3125 C 19.308594 41.667969 18.355469 42.003906 17.375 42.4375 C 16.394531 42.871094 15.371094 43.40625 14.53125 44.28125 C 13.753906 45.09375 13.21875 46.230469 13.0625 47.625 C 8.273438 46.21875 5.476563 44.105469 3.9375 42.28125 C 2.34375 40.394531 2.027344 39.035156 2 38.90625 L 2 28 C 2.144531 25.941406 3.078125 25.300781 4.375 24.625 C 5.03125 24.28125 5.757813 24.015625 6.46875 23.59375 C 7.179688 23.171875 7.90625 22.550781 8.25 21.625 C 8.28125 21.542969 8.300781 21.460938 8.3125 21.375 C 8.398438 20.433594 8.375 19.773438 8.375 19 C 8.378906 18.664063 8.214844 18.347656 7.9375 18.15625 C 7.941406 18.160156 7.910156 18.15625 7.90625 18.15625 C 7.886719 18.136719 7.875 18.109375 7.84375 18.0625 C 7.765625 17.953125 7.664063 17.769531 7.5625 17.5625 C 7.363281 17.152344 7.167969 16.644531 7.125 16.25 C 7.089844 15.835938 6.804688 15.488281 6.40625 15.375 C 6.371094 15.328125 6.242188 15.144531 6.1875 14.6875 C 6.171875 14.542969 6.203125 14.488281 6.21875 14.46875 C 6.550781 14.210938 6.6875 13.777344 6.5625 13.375 C 6.339844 12.707031 5.96875 11.195313 6.0625 10 C 6.109375 9.402344 6.261719 8.921875 6.5 8.59375 C 6.738281 8.265625 7.035156 8.027344 7.6875 7.9375 C 8.003906 7.898438 8.28125 7.714844 8.4375 7.4375 C 8.503906 7.316406 9.042969 7.011719 10.03125 7 C 10.042969 7 10.050781 7 10.0625 7 C 12.191406 7.046875 13.039063 7.699219 13.5 8.75 C 13.960938 9.808594 13.902344 11.519531 13.40625 13.4375 C 13.308594 13.839844 13.46875 14.265625 13.8125 14.5 C 13.828125 14.535156 13.824219 14.585938 13.8125 14.6875 C 13.757813 15.144531 13.628906 15.328125 13.59375 15.375 C 13.195313 15.488281 12.910156 15.835938 12.875 16.25 C 12.832031 16.636719 12.644531 17.152344 12.4375 17.5625 C 12.335938 17.765625 12.238281 17.953125 12.15625 18.0625 C 12.074219 18.171875 11.949219 18.214844 12.125 18.125 C 11.800781 18.296875 11.597656 18.632813 11.59375 19 C 11.59375 19.777344 11.570313 20.433594 11.65625 21.375 C 11.667969 21.460938 11.6875 21.542969 11.71875 21.625 C 12.230469 23.003906 13.527344 23.578125 14.71875 24.0625 C 15 24.179688 15.320313 24.164063 15.585938 24.019531 C 15.855469 23.875 16.042969 23.613281 16.09375 23.3125 C 16.460938 21.210938 17.660156 20.402344 19.15625 19.65625 C 19.902344 19.285156 20.726563 18.984375 21.46875 18.5625 C 22.210938 18.140625 22.9375 17.550781 23.28125 16.625 C 23.3125 16.542969 23.332031 16.460938 23.34375 16.375 C 23.429688 15.433594 23.40625 14.773438 23.40625 14 C 23.410156 13.664063 23.246094 13.347656 22.96875 13.15625 C 22.972656 13.160156 22.9375 13.15625 22.9375 13.15625 C 22.914063 13.136719 22.878906 13.109375 22.84375 13.0625 C 22.761719 12.953125 22.664063 12.765625 22.5625 12.5625 C 22.355469 12.152344 22.167969 11.636719 22.125 11.25 C 22.089844 10.835938 21.804688 10.488281 21.40625 10.375 C 21.371094 10.328125 21.242188 10.144531 21.1875 9.6875 C 21.171875 9.542969 21.203125 9.488281 21.21875 9.46875 C 21.539063 9.230469 21.683594 8.824219 21.59375 8.4375 C 21.09375 6.519531 21.039063 4.835938 21.5 3.78125 C 21.960938 2.734375 22.804688 2.078125 24.9375 2.03125 Z " fill="#da1c5c"/></g></svg>
