<?xml version="1.0" encoding="iso-8859-1"?>
<!-- Generator: Adobe Illustrator 20.1.0, SVG Export Plug-In . SVG Version: 6.00 Build 0)  -->
<svg xmlns="http://www.w3.org/2000/svg" xmlns:xlink="http://www.w3.org/1999/xlink" version="1.1" id="&#1057;&#1083;&#1086;&#1081;_1" x="0px" y="0px" viewBox="0 0 64 64" style="enable-background:new 0 0 64 64;" xml:space="preserve">
<linearGradient id="SVGID_1__48338" gradientUnits="userSpaceOnUse" x1="32.0166" y1="42.25" x2="32.0166" y2="56.0205" spreadMethod="reflect">
	<stop offset="0" style="stop-color:#6DC7FF"/>
	<stop offset="1" style="stop-color:#E6ABFF"/>
</linearGradient>
<path style="fill:url(#SVGID_1__48338);" d="M26,55.9c0,0.816,0.815,1.347,1.508,0.982l9.342-4.922c1.577-0.831,1.577-3.09,0-3.921  l-9.342-4.922C26.815,42.752,26,43.283,26,44.1V55.9z"/>
<linearGradient id="SVGID_2__48338" gradientUnits="userSpaceOnUse" x1="31.9834" y1="5" x2="31.9834" y2="22.8133" spreadMethod="reflect">
	<stop offset="0" style="stop-color:#6DC7FF"/>
	<stop offset="1" style="stop-color:#E6ABFF"/>
</linearGradient>
<path style="fill:url(#SVGID_2__48338);" d="M38,19.9c0,0.816-0.815,1.347-1.508,0.982L27.15,15.96c-1.577-0.831-1.577-3.09,0-3.921  l9.342-4.922C37.185,6.752,38,7.283,38,8.1V19.9z"/>
<linearGradient id="SVGID_3__48338" gradientUnits="userSpaceOnUse" x1="22.5166" y1="4.75" x2="22.5166" y2="57.7146" spreadMethod="reflect">
	<stop offset="0" style="stop-color:#1A6DFF"/>
	<stop offset="1" style="stop-color:#C822FF"/>
</linearGradient>
<path style="fill:url(#SVGID_3__48338);" d="M37.316,47.155l-9.342-4.923c-0.624-0.328-1.358-0.308-1.966,0.057  C25.377,42.671,25,43.347,25,44.1V47H13c-0.552,0-1-0.448-1-1V18c0-0.552,0.448-1,1-1h6c1.103,0,2-0.897,2-2v-2c0-1.103-0.897-2-2-2  h-6c-3.859,0-7,3.141-7,7v28c0,3.859,3.141,7,7,7h12v2.9c0,0.753,0.377,1.429,1.009,1.811C26.329,57.903,26.685,58,27.041,58  c0.319,0,0.639-0.077,0.933-0.232l9.344-4.922c1.059-0.559,1.717-1.649,1.716-2.847C39.033,48.803,38.375,47.713,37.316,47.155z   M13,51c-2.757,0-5-2.243-5-5V18c0-2.757,2.243-5,5-5h6v2h-6c-1.654,0-3,1.346-3,3v28c0,1.654,1.346,3,3,3h12v2H13z M36.385,51.076  l-9.337,4.925C27.047,56.001,27,55.983,27,55.9V44.1c0-0.078,0.042-0.098,0.042-0.098l9.343,4.923  c0.406,0.214,0.648,0.616,0.648,1.075S36.791,50.862,36.385,51.076z"/>
<linearGradient id="SVGID_4__48338" gradientUnits="userSpaceOnUse" x1="41.4834" y1="4.75" x2="41.4834" y2="57.7146" spreadMethod="reflect">
	<stop offset="0" style="stop-color:#1A6DFF"/>
	<stop offset="1" style="stop-color:#C822FF"/>
</linearGradient>
<path style="fill:url(#SVGID_4__48338);" d="M51,11H39V8.1c0-0.753-0.377-1.429-1.009-1.811c-0.607-0.365-1.343-0.385-1.965-0.057  l-9.343,4.923c-1.059,0.558-1.717,1.647-1.717,2.844c-0.001,1.197,0.657,2.288,1.717,2.847l9.342,4.922  C36.32,21.923,36.64,22,36.959,22c0.356,0,0.712-0.097,1.032-0.289C38.623,21.329,39,20.653,39,19.9V17h12c0.552,0,1,0.448,1,1v28  c0,0.552-0.448,1-1,1h-6c-1.103,0-2,0.897-2,2v2c0,1.103,0.897,2,2,2h6c3.859,0,7-3.141,7-7V18C58,14.141,54.859,11,51,11z M37,19.9  c0,0.078-0.042,0.098-0.042,0.098l-9.342-4.922c-0.407-0.214-0.649-0.617-0.649-1.076s0.242-0.861,0.648-1.075l9.337-4.926  C36.953,7.999,37,8.017,37,8.1V19.9z M56,46c0,2.757-2.243,5-5,5h-6v-2h6c1.654,0,3-1.346,3-3V18c0-1.654-1.346-3-3-3H39v-2h12  c2.757,0,5,2.243,5,5V46z"/>
</svg>
