<?xml version="1.0" encoding="iso-8859-1"?>
<!-- Generator: Adobe Illustrator 20.1.0, SVG Export Plug-In . SVG Version: 6.00 Build 0)  -->
<svg xmlns="http://www.w3.org/2000/svg" xmlns:xlink="http://www.w3.org/1999/xlink" version="1.1" id="&#1057;&#1083;&#1086;&#1081;_1" x="0px" y="0px" viewBox="0 0 64 64" style="enable-background:new 0 0 64 64;" xml:space="preserve">
<linearGradient id="SVGID_1__44839" gradientUnits="userSpaceOnUse" x1="37" y1="13.6875" x2="37" y2="18.3277" spreadMethod="reflect">
	<stop offset="0" style="stop-color:#6DC7FF"/>
	<stop offset="1" style="stop-color:#E6ABFF"/>
</linearGradient>
<path style="fill:url(#SVGID_1__44839);" d="M39,16c0,1.105-0.895,2-2,2h0c-1.105,0-2-0.895-2-2v0c0-1.105,0.895-2,2-2h0  C38.105,14,39,14.895,39,16L39,16z"/>
<linearGradient id="SVGID_2__44839" gradientUnits="userSpaceOnUse" x1="27" y1="13.6875" x2="27" y2="18.3277" spreadMethod="reflect">
	<stop offset="0" style="stop-color:#6DC7FF"/>
	<stop offset="1" style="stop-color:#E6ABFF"/>
</linearGradient>
<path style="fill:url(#SVGID_2__44839);" d="M29,16c0,1.105-0.895,2-2,2h0c-1.105,0-2-0.895-2-2v0c0-1.105,0.895-2,2-2h0  C28.105,14,29,14.895,29,16L29,16z"/>
<linearGradient id="SVGID_3__44839" gradientUnits="userSpaceOnUse" x1="32" y1="5.3333" x2="32" y2="58.1162" spreadMethod="reflect">
	<stop offset="0" style="stop-color:#1A6DFF"/>
	<stop offset="1" style="stop-color:#C822FF"/>
</linearGradient>
<path style="fill:url(#SVGID_3__44839);" d="M48,25h-4h-8v-2h4c1.654,0,3-1.346,3-3v-1h1c1.103,0,2-0.897,2-2v-3c0-1.103-0.897-2-2-2h-1  v-1c0-1.654-1.346-3-3-3h-4c0-1.103-0.897-2-2-2h-4c-1.103,0-2,0.897-2,2h-4c-1.654,0-3,1.346-3,3v1h-1c-1.103,0-2,0.897-2,2v3  c0,1.103,0.897,2,2,2h1v1c0,1.654,1.346,3,3,3h4v2h-8h-4c-2.757,0-5,2.243-5,5v1c0,1.103,0.897,2,2,2v9v1v2c0,1.654,1.346,3,3,3  s3-1.346,3-3v-2v-1v-5.004c0.501,1.21,1.172,2.333,2,3.328V45c0,2.757,2.243,5,5,5h2v5c0,1.654,1.346,3,3,3h2c1.654,0,3-1.346,3-3  v-5h2c2.757,0,5-2.243,5-5v-4.676c0.828-0.995,1.499-2.118,2-3.328V42v1v2c0,1.654,1.346,3,3,3s3-1.346,3-3v-2v-1v-9  c1.103,0,2-0.897,2-2v-1C53,27.243,50.757,25,48,25z M44,14v3h-1v-3H44z M30,8h4v1c0,1.103-0.897,2-2,2s-2-0.897-2-2V8z M20,17v-3h1  v3H20z M24,21c-0.552,0-1-0.449-1-1v-9c0-0.551,0.448-1,1-1h4.142c0.447,1.72,1.999,3,3.858,3s3.411-1.28,3.858-3H40  c0.552,0,1,0.449,1,1v9c0,0.551-0.448,1-1,1h-4h-8H24z M30,23h4v2h-4V23z M13,30c0-1.654,1.346-3,3-3h2v4h-5V30z M17,45  c0,0.551-0.448,1-1,1s-1-0.449-1-1v-1h2V45z M15,42v-9h2v9H15z M26,48c-1.654,0-3-1.346-3-3v-2.749c1.442,1.123,3.133,1.951,5,2.39  V48H26z M34,55c0,0.551-0.448,1-1,1h-2c-0.552,0-1-0.449-1-1V41c0-0.551,0.448-1,1-1h2c0.552,0,1,0.449,1,1V55z M38,48h-2v-3.358  c1.867-0.439,3.558-1.267,5-2.39V45C41,46.654,39.654,48,38,48z M44,32c0,4.99-3.302,9.262-8,10.58V41c0-1.654-1.346-3-3-3h-2  c-1.654,0-3,1.346-3,3v1.58c-4.698-1.318-8-5.59-8-10.58v-5h8h8h8V32z M49,45c0,0.551-0.448,1-1,1s-1-0.449-1-1v-1h2V45z M49,42h-2  v-9h2V42z M51,31h-5v-4h2c1.654,0,3,1.346,3,3V31z"/>
<linearGradient id="SVGID_4__44839" gradientUnits="userSpaceOnUse" x1="32" y1="28.6875" x2="32" y2="31.5028" spreadMethod="reflect">
	<stop offset="0" style="stop-color:#6DC7FF"/>
	<stop offset="1" style="stop-color:#E6ABFF"/>
</linearGradient>
<rect x="26" y="29" style="fill:url(#SVGID_4__44839);" width="12" height="2"/>
</svg>
