<?xml version="1.0" encoding="iso-8859-1"?>
<!-- Generator: Adobe Illustrator 21.1.0, SVG Export Plug-In . SVG Version: 6.00 Build 0)  -->
<svg xmlns="http://www.w3.org/2000/svg" xmlns:xlink="http://www.w3.org/1999/xlink" version="1.1" id="Layer_1" x="0px" y="0px" viewBox="0 0 64 64" style="enable-background:new 0 0 64 64;" xml:space="preserve">
<linearGradient id="SVGID_1__55465" gradientUnits="userSpaceOnUse" x1="32" y1="6" x2="32" y2="58" spreadMethod="reflect">
	<stop offset="0" style="stop-color:#1A6DFF"/>
	<stop offset="1" style="stop-color:#C822FF"/>
</linearGradient>
<path style="fill:url(#SVGID_1__55465);" d="M42.296,6H21.704C19.662,6,18,7.662,18,9.704v4.321v32.95v7.321  C18,56.338,19.662,58,21.704,58h20.592C44.338,58,46,56.338,46,54.296v-7.321v-32.95V9.704C46,7.662,44.338,6,42.296,6z M21.704,8  h20.592C43.235,8,44,8.765,44,9.704v2.298c-0.008,0-0.016-0.003-0.025-0.003h-23.95c-0.009,0-0.016,0.002-0.025,0.003V9.704  C20,8.765,20.765,8,21.704,8z M44,47c0,0.014-0.011,0-0.025,0H20V14h24V47z M42.296,56H21.704C20.765,56,20,55.235,20,54.296V49  c0.008,0,0.016,0,0.025,0h23.95c0.009,0,0.016-0.002,0.025-0.003v5.298C44,55.235,43.235,56,42.296,56z"/>
<linearGradient id="SVGID_2__55465" gradientUnits="userSpaceOnUse" x1="32" y1="776.5" x2="32" y2="728.1595" gradientTransform="matrix(1 0 0 -1 0 786)" spreadMethod="reflect">
	<stop offset="0" style="stop-color:#1A6DFF"/>
	<stop offset="1" style="stop-color:#C822FF"/>
</linearGradient>
<path style="fill:url(#SVGID_2__55465);" d="M37.074,53H26.926C26.417,53,26,52.583,26,52.074v-0.148C26,51.417,26.417,51,26.926,51  h10.148C37.583,51,38,51.417,38,51.926v0.148C38,52.583,37.583,53,37.074,53z"/>
<linearGradient id="SVGID_3__55465" gradientUnits="userSpaceOnUse" x1="32" y1="779.6667" x2="32" y2="731.2504" gradientTransform="matrix(1 0 0 -1 0 786)" spreadMethod="reflect">
	<stop offset="0" style="stop-color:#1A6DFF"/>
	<stop offset="1" style="stop-color:#C822FF"/>
</linearGradient>
<circle style="fill:url(#SVGID_3__55465);" cx="32" cy="10" r="1"/>
<linearGradient id="SVGID_4__55465" gradientUnits="userSpaceOnUse" x1="32" y1="757.5772" x2="32" y2="751.8494" gradientTransform="matrix(1 0 0 -1 0 786)" spreadMethod="reflect">
	<stop offset="0" style="stop-color:#6DC7FF"/>
	<stop offset="1" style="stop-color:#E6ABFF"/>
</linearGradient>
<circle style="fill:url(#SVGID_4__55465);" cx="32" cy="31" r="2"/>
<linearGradient id="SVGID_5__55465" gradientUnits="userSpaceOnUse" x1="32" y1="761" x2="32" y2="749" gradientTransform="matrix(1 0 0 -1 0 786)" spreadMethod="reflect">
	<stop offset="0" style="stop-color:#6DC7FF"/>
	<stop offset="1" style="stop-color:#E6ABFF"/>
</linearGradient>
<circle style="fill:none;stroke:url(#SVGID_5__55465);stroke-width:2;stroke-miterlimit:10;" cx="32" cy="31" r="5"/>
<linearGradient id="SVGID_6__55465" gradientUnits="userSpaceOnUse" x1="32" y1="765" x2="32" y2="745" gradientTransform="matrix(1 0 0 -1 0 786)" spreadMethod="reflect">
	<stop offset="0" style="stop-color:#6DC7FF"/>
	<stop offset="1" style="stop-color:#E6ABFF"/>
</linearGradient>
<circle style="fill:none;stroke:url(#SVGID_6__55465);stroke-width:2;stroke-miterlimit:10;" cx="32" cy="31" r="9"/>
</svg>
