<?xml version="1.0" encoding="iso-8859-1"?>
<!-- Generator: Adobe Illustrator 20.1.0, SVG Export Plug-In . SVG Version: 6.00 Build 0)  -->
<svg xmlns="http://www.w3.org/2000/svg" xmlns:xlink="http://www.w3.org/1999/xlink" version="1.1" id="&#1057;&#1083;&#1086;&#1081;_1" x="0px" y="0px" viewBox="0 0 64 64" style="enable-background:new 0 0 64 64;" xml:space="preserve">
<linearGradient id="SVGID_1__52572" gradientUnits="userSpaceOnUse" x1="14.1992" y1="42.2505" x2="14.1992" y2="47.9431" spreadMethod="reflect">
	<stop offset="0" style="stop-color:#6DC7FF"/>
	<stop offset="1" style="stop-color:#E6ABFF"/>
</linearGradient>
<polygon style="fill:url(#SVGID_1__52572);" points="15.266,47.897 11.719,44.35 13.133,42.936 16.68,46.483 "/>
<linearGradient id="SVGID_2__52572" gradientUnits="userSpaceOnUse" x1="19.875" y1="36.7505" x2="19.875" y2="42.2177" spreadMethod="reflect">
	<stop offset="0" style="stop-color:#6DC7FF"/>
	<stop offset="1" style="stop-color:#E6ABFF"/>
</linearGradient>
<polygon style="fill:url(#SVGID_2__52572);" points="20.941,42.221 17.395,38.674 18.809,37.26 22.355,40.807 "/>
<linearGradient id="SVGID_3__52572" gradientUnits="userSpaceOnUse" x1="22.7129" y1="34.0005" x2="22.7129" y2="39.0995" spreadMethod="reflect">
	<stop offset="0" style="stop-color:#6DC7FF"/>
	<stop offset="1" style="stop-color:#E6ABFF"/>
</linearGradient>
<polygon style="fill:url(#SVGID_3__52572);" points="23.779,39.383 20.232,35.836 21.646,34.422 25.193,37.969 "/>
<linearGradient id="SVGID_4__52572" gradientUnits="userSpaceOnUse" x1="28.3887" y1="28.5005" x2="28.3887" y2="33.6498" spreadMethod="reflect">
	<stop offset="0" style="stop-color:#6DC7FF"/>
	<stop offset="1" style="stop-color:#E6ABFF"/>
</linearGradient>
<polygon style="fill:url(#SVGID_4__52572);" points="29.455,33.708 25.908,30.161 27.322,28.747 30.869,32.293 "/>
<linearGradient id="SVGID_5__52572" gradientUnits="userSpaceOnUse" x1="31.2266" y1="25.5005" x2="31.2266" y2="30.7505" spreadMethod="reflect">
	<stop offset="0" style="stop-color:#6DC7FF"/>
	<stop offset="1" style="stop-color:#E6ABFF"/>
</linearGradient>
<polygon style="fill:url(#SVGID_5__52572);" points="32.293,30.871 28.746,27.323 30.16,25.909 33.707,29.457 "/>
<linearGradient id="SVGID_6__52572" gradientUnits="userSpaceOnUse" x1="36.9019" y1="20.1255" x2="36.9019" y2="25.377" spreadMethod="reflect">
	<stop offset="0" style="stop-color:#6DC7FF"/>
	<stop offset="1" style="stop-color:#E6ABFF"/>
</linearGradient>
<polygon style="fill:url(#SVGID_6__52572);" points="37.969,25.195 34.421,21.647 35.835,20.233 39.383,23.781 "/>
<linearGradient id="SVGID_7__52572" gradientUnits="userSpaceOnUse" x1="39.7397" y1="17.3755" x2="39.7397" y2="22.5066" spreadMethod="reflect">
	<stop offset="0" style="stop-color:#6DC7FF"/>
	<stop offset="1" style="stop-color:#E6ABFF"/>
</linearGradient>
<polygon style="fill:url(#SVGID_7__52572);" points="40.807,22.357 37.259,18.809 38.673,17.395 42.221,20.943 "/>
<linearGradient id="SVGID_8__52572" gradientUnits="userSpaceOnUse" x1="45.4155" y1="11.3755" x2="45.4155" y2="16.5142" spreadMethod="reflect">
	<stop offset="0" style="stop-color:#6DC7FF"/>
	<stop offset="1" style="stop-color:#E6ABFF"/>
</linearGradient>
<polygon style="fill:url(#SVGID_8__52572);" points="46.482,16.681 42.935,13.133 44.349,11.719 47.896,15.267 "/>
<linearGradient id="SVGID_9__52572" gradientUnits="userSpaceOnUse" x1="25.1099" y1="4.5" x2="25.1099" y2="59.1278" spreadMethod="reflect">
	<stop offset="0" style="stop-color:#1A6DFF"/>
	<stop offset="1" style="stop-color:#C822FF"/>
</linearGradient>
<polygon style="fill:url(#SVGID_9__52572);" points="43.97,6 41.64,6 6,41.646 6,43.966 6.14,44.269 44.22,6.143 "/>
<linearGradient id="SVGID_10__52572" gradientUnits="userSpaceOnUse" x1="33" y1="4.5005" x2="33" y2="59.1276" spreadMethod="reflect">
	<stop offset="0" style="stop-color:#1A6DFF"/>
	<stop offset="1" style="stop-color:#C822FF"/>
</linearGradient>
<path style="fill:url(#SVGID_10__52572);" d="M57.119,15.976l-7.095-7.095c-1.172-1.172-3.078-1.17-4.252,0L8.881,45.773  C8.313,46.341,8,47.096,8,47.9c0,0.803,0.313,1.558,0.881,2.126l7.095,7.095C16.562,57.707,17.331,58,18.101,58  c0.771,0,1.54-0.293,2.127-0.879l36.892-36.893C57.688,19.661,58,18.906,58,18.102C58,17.299,57.688,16.544,57.119,15.976z   M55.705,18.813L18.813,55.706c-0.393,0.395-1.031,0.394-1.424,0.001l-7.095-7.095C10.104,48.421,10,48.168,10,47.9  s0.104-0.521,0.295-0.712l4.969-4.969l4.259,4.259l1.414-1.414l-4.259-4.259l7.1-7.1l4.259,4.259l1.414-1.414l-4.259-4.259l7.1-7.1  l4.259,4.26l1.414-1.414l-4.259-4.26l7.099-7.099l4.259,4.259l1.414-1.414l-4.259-4.259l4.968-4.968  c0.196-0.197,0.454-0.295,0.712-0.295s0.516,0.098,0.712,0.294l7.095,7.095c0.19,0.19,0.295,0.443,0.295,0.712  S55.896,18.624,55.705,18.813z"/>
</svg>
