<?xml version="1.0" encoding="iso-8859-1"?>
<!-- Generator: Adobe Illustrator 20.1.0, SVG Export Plug-In . SVG Version: 6.00 Build 0)  -->
<svg xmlns="http://www.w3.org/2000/svg" xmlns:xlink="http://www.w3.org/1999/xlink" version="1.1" id="&#1057;&#1083;&#1086;&#1081;_1" x="0px" y="0px" viewBox="0 0 64 64" style="enable-background:new 0 0 64 64;" xml:space="preserve">
<linearGradient id="SVGID_1__48250" gradientUnits="userSpaceOnUse" x1="16" y1="11.3333" x2="16" y2="16.8961" spreadMethod="reflect">
	<stop offset="0" style="stop-color:#6DC7FF"/>
	<stop offset="1" style="stop-color:#E6ABFF"/>
</linearGradient>
<path style="fill:url(#SVGID_1__48250);" d="M16,16c-1.103,0-2-0.897-2-2s0.897-2,2-2s2,0.897,2,2S17.103,16,16,16z M16,13.999V14V13.999z  "/>
<linearGradient id="SVGID_2__48250" gradientUnits="userSpaceOnUse" x1="22" y1="11.3333" x2="22" y2="16.8961" spreadMethod="reflect">
	<stop offset="0" style="stop-color:#6DC7FF"/>
	<stop offset="1" style="stop-color:#E6ABFF"/>
</linearGradient>
<path style="fill:url(#SVGID_2__48250);" d="M22,16c-1.103,0-2-0.897-2-2s0.897-2,2-2s2,0.897,2,2S23.103,16,22,16z M22,13.999V14V13.999z  "/>
<linearGradient id="SVGID_3__48250" gradientUnits="userSpaceOnUse" x1="28" y1="11.3333" x2="28" y2="16.8961" spreadMethod="reflect">
	<stop offset="0" style="stop-color:#6DC7FF"/>
	<stop offset="1" style="stop-color:#E6ABFF"/>
</linearGradient>
<path style="fill:url(#SVGID_3__48250);" d="M28,16c-1.103,0-2-0.897-2-2s0.897-2,2-2s2,0.897,2,2S29.103,16,28,16z M28,13.999V14V13.999z  "/>
<linearGradient id="SVGID_4__48250" gradientUnits="userSpaceOnUse" x1="32" y1="8" x2="32" y2="57.847" spreadMethod="reflect">
	<stop offset="0" style="stop-color:#1A6DFF"/>
	<stop offset="1" style="stop-color:#C822FF"/>
</linearGradient>
<path style="fill:url(#SVGID_4__48250);" d="M51,8H13c-2.757,0-5,2.243-5,5v38c0,2.757,2.243,5,5,5h38c2.757,0,5-2.243,5-5V13  C56,10.243,53.757,8,51,8z M13,10h38c1.654,0,3,1.346,3,3v5H10v-5C10,11.346,11.346,10,13,10z M51,54H13c-1.654,0-3-1.346-3-3V20h44  v31C54,52.654,52.654,54,51,54z"/>
<linearGradient id="SVGID_5__48250" gradientUnits="userSpaceOnUse" x1="19.9197" y1="8" x2="19.9197" y2="57.847" spreadMethod="reflect">
	<stop offset="0" style="stop-color:#1A6DFF"/>
	<stop offset="1" style="stop-color:#C822FF"/>
</linearGradient>
<path style="fill:url(#SVGID_5__48250);" d="M23.171,28.248l-7.137,6.245c-0.435,0.38-0.684,0.93-0.684,1.508s0.249,1.127,0.684,1.508  l7.137,6.244l1.317-1.505l-7.137-6.251l7.137-6.244L23.171,28.248z"/>
<linearGradient id="SVGID_6__48250" gradientUnits="userSpaceOnUse" x1="44.3491" y1="8" x2="44.3491" y2="57.847" spreadMethod="reflect">
	<stop offset="0" style="stop-color:#1A6DFF"/>
	<stop offset="1" style="stop-color:#C822FF"/>
</linearGradient>
<path style="fill:url(#SVGID_6__48250);" d="M41.529,28.285l-1.397,1.431l6.434,6.288l-6.434,6.281l1.397,1.431l6.434-6.281  c0.389-0.38,0.604-0.89,0.604-1.434s-0.215-1.054-0.604-1.434L41.529,28.285z"/>
<linearGradient id="SVGID_7__48250" gradientUnits="userSpaceOnUse" x1="32.5" y1="8" x2="32.5" y2="57.847" spreadMethod="reflect">
	<stop offset="0" style="stop-color:#1A6DFF"/>
	<stop offset="1" style="stop-color:#C822FF"/>
</linearGradient>
<polygon style="fill:url(#SVGID_7__48250);" points="27.059,48.661 28.941,49.339 37.941,24.339 36.059,23.661 "/>
</svg>
