<?xml version="1.0" encoding="iso-8859-1"?>
<!-- Generator: Adobe Illustrator 20.1.0, SVG Export Plug-In . SVG Version: 6.00 Build 0)  -->
<svg xmlns="http://www.w3.org/2000/svg" xmlns:xlink="http://www.w3.org/1999/xlink" version="1.1" id="&#1057;&#1083;&#1086;&#1081;_1" x="0px" y="0px" viewBox="0 0 64 64" style="enable-background:new 0 0 64 64;" xml:space="preserve">
<linearGradient id="SVGID_1__43674" gradientUnits="userSpaceOnUse" x1="16" y1="15.1875" x2="16" y2="22.4829" spreadMethod="reflect">
	<stop offset="0" style="stop-color:#6DC7FF"/>
	<stop offset="1" style="stop-color:#E6ABFF"/>
</linearGradient>
<circle style="fill:url(#SVGID_1__43674);" cx="16" cy="19" r="3"/>
<linearGradient id="SVGID_2__43674" gradientUnits="userSpaceOnUse" x1="40" y1="5.5" x2="40" y2="59.001" spreadMethod="reflect">
	<stop offset="0" style="stop-color:#1A6DFF"/>
	<stop offset="1" style="stop-color:#C822FF"/>
</linearGradient>
<path style="fill:url(#SVGID_2__43674);" d="M33,50c7.72,0,14-6.28,14-14h-2c0,6.617-5.383,12-12,12V50z"/>
<linearGradient id="SVGID_3__43674" gradientUnits="userSpaceOnUse" x1="16" y1="5.5" x2="16" y2="59.001" spreadMethod="reflect">
	<stop offset="0" style="stop-color:#1A6DFF"/>
	<stop offset="1" style="stop-color:#C822FF"/>
</linearGradient>
<path style="fill:url(#SVGID_3__43674);" d="M16,26c3.859,0,7-3.141,7-7s-3.141-7-7-7s-7,3.141-7,7S12.141,26,16,26z M16,14  c2.757,0,5,2.243,5,5s-2.243,5-5,5s-5-2.243-5-5S13.243,14,16,14z"/>
<linearGradient id="SVGID_4__43674" gradientUnits="userSpaceOnUse" x1="33" y1="5.5" x2="33" y2="59.001" spreadMethod="reflect">
	<stop offset="0" style="stop-color:#1A6DFF"/>
	<stop offset="1" style="stop-color:#C822FF"/>
</linearGradient>
<path style="fill:url(#SVGID_4__43674);" d="M32,26v6.142c-1.72,0.447-3,1.999-3,3.858c0,2.206,1.794,4,4,4s4-1.794,4-4  c0-1.859-1.28-3.411-3-3.858V26H32z M35,36c0,1.103-0.897,2-2,2s-2-0.897-2-2s0.897-2,2-2S35,34.897,35,36z"/>
<linearGradient id="SVGID_5__43674" gradientUnits="userSpaceOnUse" x1="33" y1="5.5" x2="33" y2="59.001" spreadMethod="reflect">
	<stop offset="0" style="stop-color:#1A6DFF"/>
	<stop offset="1" style="stop-color:#C822FF"/>
</linearGradient>
<path style="fill:url(#SVGID_5__43674);" d="M17,36c0-1.946,0.345-3.846,1.024-5.646l-1.871-0.707C15.388,31.674,15,33.812,15,36  c0,9.925,8.075,18,18,18s18-8.075,18-18s-8.075-18-18-18c-2.094,0-4.145,0.356-6.096,1.06l0.678,1.881  C29.315,20.316,31.139,20,33,20c8.822,0,16,7.178,16,16s-7.178,16-16,16S17,44.822,17,36z"/>
<linearGradient id="SVGID_6__43674" gradientUnits="userSpaceOnUse" x1="33" y1="5.5" x2="33" y2="59.001" spreadMethod="reflect">
	<stop offset="0" style="stop-color:#1A6DFF"/>
	<stop offset="1" style="stop-color:#C822FF"/>
</linearGradient>
<path style="fill:url(#SVGID_6__43674);" d="M50.524,22.718l2.861-2.861c0.78-0.779,0.78-2.049,0-2.828l-1.414-1.414  c-0.779-0.779-2.049-0.779-2.828,0l-2.861,2.861c-3.445-2.618-7.681-4.244-12.282-4.451V12h2c1.103,0,2-0.897,2-2V8  c0-1.103-0.897-2-2-2h-6c-1.103,0-2,0.897-2,2v2c0,1.103,0.897,2,2,2h2v2.042c-2.169,0.097-4.296,0.491-6.333,1.211l0.666,1.885  C28.469,16.383,30.712,16,33,16c11.028,0,20,8.972,20,20s-8.972,20-20,20s-20-8.972-20-20c0-2.288,0.383-4.531,1.138-6.667  l-1.885-0.666C11.422,31.017,11,33.483,11,36c0,12.131,9.869,22,22,22s22-9.869,22-22C55,31.014,53.33,26.412,50.524,22.718z M30,8  h6l0.002,2H30V8z M47.825,19.761l2.731-2.731l1.414,1.414l-2.731,2.731C48.79,20.683,48.317,20.21,47.825,19.761z"/>
</svg>
