<?xml version="1.0" encoding="iso-8859-1"?>
<!-- Generator: Adobe Illustrator 20.1.0, SVG Export Plug-In . SVG Version: 6.00 Build 0)  -->
<svg xmlns="http://www.w3.org/2000/svg" xmlns:xlink="http://www.w3.org/1999/xlink" version="1.1" id="&#1057;&#1083;&#1086;&#1081;_1" x="0px" y="0px" viewBox="0 0 64 64" style="enable-background:new 0 0 64 64;" xml:space="preserve">
<linearGradient id="SVGID_1__49407" gradientUnits="userSpaceOnUse" x1="38" y1="25.5" x2="38" y2="32.51" spreadMethod="reflect">
	<stop offset="0" style="stop-color:#6DC7FF"/>
	<stop offset="1" style="stop-color:#E6ABFF"/>
</linearGradient>
<path style="fill:url(#SVGID_1__49407);" d="M31,27v4c0,0.552,0.448,1,1,1h1.532c0.297,0,3.5-3.638,3.5-3.638  c0.428-0.514,1.229-0.471,1.6,0.085c0,0,3.368,3.552,2.903,3.552H44c0.552,0,1-0.448,1-1v-4c0-0.552-0.448-1-1-1H32  C31.448,26,31,26.448,31,27z"/>
<linearGradient id="SVGID_2__49407" gradientUnits="userSpaceOnUse" x1="32" y1="5.1667" x2="32" y2="60.1843" spreadMethod="reflect">
	<stop offset="0" style="stop-color:#1A6DFF"/>
	<stop offset="1" style="stop-color:#C822FF"/>
</linearGradient>
<path style="fill:url(#SVGID_2__49407);" d="M53,6H11C9.346,6,8,7.346,8,9v33v1v4c0,1.654,1.346,3,3,3h17v-2H11c-0.552,0-1-0.448-1-1  v-1.184C10.314,45.928,10.647,46,11,46h17v-2H11c-0.552,0-1-0.448-1-1v-1V16h44v23v4c0,0.552-0.448,1-1,1h-5v2h5  c0.353,0,0.686-0.072,1-0.184V47c0,0.552-0.448,1-1,1h-5v2h5c1.654,0,3-1.346,3-3v-4v-4V9C56,7.346,54.654,6,53,6z M28.382,8l3,6  h-4.764l-3-6H28.382z M10,9c0-0.552,0.448-1,1-1h10.382l3,6H10V9z M33.618,14l-3-6H53c0.552,0,1,0.448,1,1v5H33.618z"/>
<linearGradient id="SVGID_3__49407" gradientUnits="userSpaceOnUse" x1="38" y1="5.1667" x2="38" y2="60.1843" spreadMethod="reflect">
	<stop offset="0" style="stop-color:#1A6DFF"/>
	<stop offset="1" style="stop-color:#C822FF"/>
</linearGradient>
<path style="fill:url(#SVGID_3__49407);" d="M48.047,39.268L45.869,36H47c1.103,0,2-0.897,2-2V24c0-1.103-0.897-2-2-2H29  c-1.103,0-2,0.897-2,2v10c0,1.103,0.897,2,2,2h1.131l-2.178,3.268c-0.705,1.058-0.666,2.45,0.097,3.464l2.037,2.717  C30.036,45.625,30,45.807,30,46v2c0,1.103,0.897,2,2,2v5c0,1.654,1.346,3,3,3h6c1.654,0,3-1.346,3-3v-5c1.103,0,2-0.897,2-2v-2  c0-0.193-0.036-0.375-0.087-0.551l2.036-2.715C48.713,41.718,48.752,40.325,48.047,39.268z M29,34V24h18v10h-2.465l-4.037-6.056  c-0.559-0.837-1.492-1.337-2.498-1.337s-1.939,0.5-2.498,1.337L31.465,34H29z M39,39c0,0.552-0.448,1-1,1s-1-0.448-1-1s0.448-1,1-1  S39,38.448,39,39z M42,55c0,0.552-0.448,1-1,1h-6c-0.552,0-1-0.448-1-1v-5h8V55z M32,48v-2h12l0.002,2H32z M46.351,41.532  l-1.894,2.526C44.31,44.023,44.158,44,44,44H32c-0.158,0-0.31,0.023-0.457,0.058l-1.895-2.527c-0.254-0.337-0.267-0.801-0.031-1.153  L37,29.303v6.882c-1.162,0.414-2,1.514-2,2.816c0,1.654,1.346,3,3,3s3-1.346,3-3c0-1.302-0.838-2.402-2-2.816v-6.882l7.383,11.074  C46.618,40.729,46.605,41.193,46.351,41.532z"/>
<linearGradient id="SVGID_4__49407" gradientUnits="userSpaceOnUse" x1="18.5" y1="5.1667" x2="18.5" y2="60.1843" spreadMethod="reflect">
	<stop offset="0" style="stop-color:#1A6DFF"/>
	<stop offset="1" style="stop-color:#C822FF"/>
</linearGradient>
<rect x="14" y="22" style="fill:url(#SVGID_4__49407);" width="9" height="2"/>
<linearGradient id="SVGID_5__49407" gradientUnits="userSpaceOnUse" x1="18.5" y1="5.1667" x2="18.5" y2="60.1843" spreadMethod="reflect">
	<stop offset="0" style="stop-color:#1A6DFF"/>
	<stop offset="1" style="stop-color:#C822FF"/>
</linearGradient>
<rect x="14" y="26" style="fill:url(#SVGID_5__49407);" width="9" height="2"/>
<linearGradient id="SVGID_6__49407" gradientUnits="userSpaceOnUse" x1="18.5" y1="5.1667" x2="18.5" y2="60.1843" spreadMethod="reflect">
	<stop offset="0" style="stop-color:#1A6DFF"/>
	<stop offset="1" style="stop-color:#C822FF"/>
</linearGradient>
<rect x="14" y="30" style="fill:url(#SVGID_6__49407);" width="9" height="2"/>
<linearGradient id="SVGID_7__49407" gradientUnits="userSpaceOnUse" x1="18.5" y1="5.1667" x2="18.5" y2="60.1843" spreadMethod="reflect">
	<stop offset="0" style="stop-color:#1A6DFF"/>
	<stop offset="1" style="stop-color:#C822FF"/>
</linearGradient>
<rect x="14" y="34" style="fill:url(#SVGID_7__49407);" width="9" height="2"/>
</svg>
