<?xml version="1.0" encoding="utf-8"?>
<!-- Generator: Adobe Illustrator 15.0.0, SVG Export Plug-In . SVG Version: 6.00 Build 0)  -->
<!DOCTYPE svg PUBLIC "-//W3C//DTD SVG 1.1//EN" "http://www.w3.org/Graphics/SVG/1.1/DTD/svg11.dtd">
<svg version="1.1" id="Layer_1" xmlns="http://www.w3.org/2000/svg" xmlns:xlink="http://www.w3.org/1999/xlink" x="0px" y="0px"
	 width="2736px" height="1862px" viewBox="0 0 2736 1862" enable-background="new 0 0 2736 1862" xml:space="preserve">
<g>
	<defs>
		<rect id="SVGID_1_" width="2736" height="1862"/>
	</defs>
	<clipPath id="SVGID_2_">
		<use xlink:href="#SVGID_1_"  overflow="visible"/>
	</clipPath>
	<g opacity="0.5" clip-path="url(#SVGID_2_)">
		<linearGradient id="SVGID_3_" gradientUnits="userSpaceOnUse" x1="2201.8281" y1="1153.0254" x2="1582.976" y2="735.2217">
			<stop  offset="0" style="stop-color:#FFFFFF;stop-opacity:0.53"/>
			<stop  offset="1" style="stop-color:#FFFFFF;stop-opacity:0"/>
		</linearGradient>
		<path fill="url(#SVGID_3_)" d="M1709.496,1333.156c-57.713,0-106.764-14.564-145.974-41.776
			c-35.365-24.547-61.015-58.141-77.07-98.853c-15.004-38.039-20.925-80.543-18.441-126.076
			c2.423-44.418,12.819-90.342,30.393-136.816c16.801-44.437,39.465-87.51,67.385-128.698c26.32-38.833,56.692-75.12,90.637-108.441
			c33.817-33.196,70.154-62.441,108.563-87.32c40.442-26.194,82.254-46.912,124.934-61.646
			c44.335-15.306,87.735-23.514,129.359-23.963c42.45-0.458,81.809,7.117,116.84,23.293c37.395,17.271,68.146,43.535,90.563,78.908
			c24.887,39.272,38.219,87.841,38.219,144.717c0,60.573-15.086,125.727-45.717,192.567
			c-30.753,67.106-74.891,131.109-130.538,188.521c-56.005,57.785-118.975,104.053-185.497,136.57
			C1836.149,1316.892,1770.552,1333.156,1709.496,1333.156z M1889.822,543.964c-164.622,56.803-326.814,215.798-390.975,385.576
			c-77.069,203.936-6.12,402.76,210.866,402.661c273.268-0.123,554.18-291.161,554.31-565.53
			C2264.123,554.695,2082.129,477.61,1889.822,543.964z"/>
	</g>
	<g opacity="0.5" clip-path="url(#SVGID_2_)">
		<linearGradient id="SVGID_4_" gradientUnits="userSpaceOnUse" x1="1898.1777" y1="1139.7598" x2="1371.8239" y2="784.4042">
			<stop  offset="0" style="stop-color:#FFFFFF;stop-opacity:0.53"/>
			<stop  offset="1" style="stop-color:#FFFFFF;stop-opacity:0"/>
		</linearGradient>
		<path fill="url(#SVGID_4_)" d="M1479.433,1292.967c-49.086,0-90.806-12.388-124.155-35.533
			c-30.08-20.878-51.895-49.45-65.551-84.076c-12.761-32.354-17.797-68.504-15.685-107.231
			c2.061-37.779,10.903-76.839,25.85-116.367c14.29-37.795,33.566-74.43,57.313-109.462c22.386-33.029,48.219-63.892,77.089-92.233
			c28.763-28.234,59.669-53.108,92.337-74.269c34.397-22.279,69.959-39.9,106.26-52.431c37.708-13.018,74.621-20,110.024-20.382
			c36.104-0.39,69.581,6.053,99.376,19.812c31.805,14.69,57.961,37.028,77.025,67.114c21.168,33.402,32.507,74.711,32.507,123.086
			c0,51.52-12.831,106.935-38.884,163.785c-26.156,57.076-63.696,111.512-111.026,160.343
			c-47.634,49.147-101.191,88.5-157.771,116.157C1587.155,1279.133,1531.362,1292.967,1479.433,1292.967z M1632.806,621.734
			c-140.016,48.313-277.966,183.543-332.536,327.944c-65.55,173.453-5.205,342.56,179.349,342.477
			c232.423-0.104,471.347-247.643,471.458-481.001C1951.16,630.86,1796.369,565.298,1632.806,621.734z"/>
	</g>
	<g opacity="0.05" clip-path="url(#SVGID_2_)">
		<polygon fill="#FFFFFF" points="2428.655,990.998 2428.155,990.71 2278.949,904.565 2278.949,917.428 2428.655,1003.861 
			2736,826.415 2736,813.553 		"/>
		<polygon fill="#FFFFFF" points="1947.283,479.508 1947.283,157.236 1947.783,156.947 2219.623,0 2197.347,0 1936.145,150.805 
			1936.145,476.994 		"/>
	</g>
	<polygon opacity="0.05" clip-path="url(#SVGID_2_)" fill="#FFFFFF" points="2736,43.899 2659.965,0 2637.688,0 2736,56.761 	"/>
	<polygon opacity="0.05" clip-path="url(#SVGID_2_)" fill="#FFFFFF" points="363.054,436.329 0,643.095 0,666.881 362.913,460.194 
		363.411,460.486 1189.917,944.187 1184.51,1862 1205.179,1862 1210.656,932.376 	"/>
	<g opacity="0.1" clip-path="url(#SVGID_2_)">
		<g>
			<path fill="#858ABD" d="M762.777,465.051l-106.494-61.485v-122.97l106.494-61.484l106.495,61.484v122.97L762.777,465.051z
				 M659.117,401.929l103.66,59.849l103.66-59.849V282.233l-103.66-59.849l-103.66,59.849V401.929z"/>
			<linearGradient id="SVGID_5_" gradientUnits="userSpaceOnUse" x1="655.2832" y1="342.0811" x2="870.2725" y2="342.0811">
				<stop  offset="0" style="stop-color:#FFFFFF"/>
				<stop  offset="1" style="stop-color:#FFFFFF;stop-opacity:0"/>
			</linearGradient>
			<path fill="url(#SVGID_5_)" d="M762.777,466.206l-107.494-62.063V280.019l0.5-0.289l106.994-61.773l107.495,62.062v124.124
				l-0.5,0.289L762.777,466.206z M657.283,402.988l105.494,60.908l105.495-60.908V281.173l-105.495-60.907l-105.494,60.907V402.988z
				 M762.777,462.932l-104.66-60.426v-120.85l0.5-0.289l104.16-60.137l104.66,60.426v120.85l-0.5,0.289L762.777,462.932z
				 M660.117,401.352l102.66,59.271l102.66-59.271V282.811l-102.66-59.271l-102.66,59.271V401.352z"/>
		</g>
	</g>
	<g opacity="0.1" clip-path="url(#SVGID_2_)">
		<g>
			<path fill="#858ABD" d="M1261.505,325.051l-106.494-61.485v-122.97l106.494-61.484L1368,140.596v122.97L1261.505,325.051z
				 M1157.845,261.929l103.66,59.849l103.66-59.849V142.233l-103.66-59.849l-103.66,59.849V261.929z"/>
			<linearGradient id="SVGID_6_" gradientUnits="userSpaceOnUse" x1="1154.0107" y1="202.0811" x2="1369" y2="202.0811">
				<stop  offset="0" style="stop-color:#FFFFFF"/>
				<stop  offset="1" style="stop-color:#FFFFFF;stop-opacity:0"/>
			</linearGradient>
			<path fill="url(#SVGID_6_)" d="M1261.505,326.206l-107.494-62.063V140.019l0.5-0.289l106.994-61.773L1369,140.019v124.124
				l-0.5,0.289L1261.505,326.206z M1156.011,262.988l105.494,60.908L1367,262.988V141.173l-105.495-60.907l-105.494,60.907V262.988z
				 M1261.505,322.932l-104.66-60.426v-120.85l0.5-0.289l104.16-60.137l104.66,60.426v120.85l-0.5,0.289L1261.505,322.932z
				 M1158.845,261.352l102.66,59.271l102.66-59.271V142.811l-102.66-59.271l-102.66,59.271V261.352z"/>
		</g>
	</g>
	<g opacity="0.15" clip-path="url(#SVGID_2_)">
		<g>
			<path fill="#858ABD" d="M1306.83,290.751l-67.525-38.986v-77.972l67.525-38.986l67.526,38.986v77.972L1306.83,290.751z
				 M1241.102,250.728l65.728,37.948l65.728-37.948v-75.896l-65.728-37.948l-65.728,37.948V250.728z"/>
			<linearGradient id="SVGID_7_" gradientUnits="userSpaceOnUse" x1="1306.8296" y1="135" x2="1306.8296" y2="292.5">
				<stop  offset="0" style="stop-color:#FFFFFF"/>
				<stop  offset="1" style="stop-color:#FFFFFF;stop-opacity:0"/>
			</linearGradient>
			<path fill="url(#SVGID_7_)" d="M1306.83,291.906l-68.525-39.564v-79.126l68.525-39.563l68.526,39.563v79.126L1306.83,291.906z
				 M1242.102,250.15l64.728,37.371l64.728-37.371v-74.742l-64.728-37.371l-64.728,37.371V250.15z"/>
		</g>
	</g>
	<g opacity="0.15" clip-path="url(#SVGID_2_)">
		<g>
			<path fill="#858ABD" d="M1113.975,604.751l-35.025-20.222v-40.444l35.025-20.222L1149,544.085v40.444L1113.975,604.751z
				 M1079.881,583.991l34.093,19.684l34.093-19.684v-39.367l-34.093-19.684l-34.093,19.684V583.991z"/>
			<linearGradient id="SVGID_8_" gradientUnits="userSpaceOnUse" x1="1077.9492" y1="564.3076" x2="1150" y2="564.3076">
				<stop  offset="0" style="stop-color:#FFFFFF"/>
				<stop  offset="1" style="stop-color:#FFFFFF;stop-opacity:0"/>
			</linearGradient>
			<path fill="url(#SVGID_8_)" d="M1113.975,605.906l-36.025-20.8v-41.598l36.025-20.8l36.025,20.8v41.598L1113.975,605.906z
				 M1080.881,583.414l33.093,19.106l33.093-19.106v-38.213l-33.093-19.106l-33.093,19.106V583.414z"/>
		</g>
	</g>
	<g opacity="0.15" clip-path="url(#SVGID_2_)">
		<g>
			<path fill="#858ABD" d="M869.141,382.464l-35.025-20.222v-40.444l35.025-20.222l35.025,20.222v40.444L869.141,382.464z
				 M835.047,361.704l34.093,19.684l34.093-19.684v-39.367l-34.093-19.684l-34.093,19.684V361.704z"/>
			<linearGradient id="SVGID_9_" gradientUnits="userSpaceOnUse" x1="869.1406" y1="383.5" x2="869.1406" y2="301.4756">
				<stop  offset="0" style="stop-color:#FFFFFF"/>
				<stop  offset="1" style="stop-color:#FFFFFF;stop-opacity:0"/>
			</linearGradient>
			<path fill="url(#SVGID_9_)" d="M869.141,383.619l-36.025-20.8v-41.598l36.025-20.8l36.025,20.8v41.598L869.141,383.619z
				 M836.047,361.126l33.093,19.106l33.093-19.106v-38.213l-33.093-19.106l-33.093,19.106V361.126z"/>
		</g>
	</g>
	<g opacity="0.15" clip-path="url(#SVGID_2_)">
		<g>
			<path fill="#858ABD" d="M2123.806,1590.43l-35.025-20.222v-40.444l35.025-20.222l35.025,20.222v40.444L2123.806,1590.43z
				 M2089.713,1569.67l34.093,19.684l34.093-19.684v-39.367l-34.093-19.684l-34.093,19.684V1569.67z"/>
			<linearGradient id="SVGID_10_" gradientUnits="userSpaceOnUse" x1="2123.8057" y1="1591.4668" x2="2123.8057" y2="1509.4419">
				<stop  offset="0" style="stop-color:#FFFFFF"/>
				<stop  offset="1" style="stop-color:#FFFFFF;stop-opacity:0"/>
			</linearGradient>
			<path fill="url(#SVGID_10_)" d="M2123.806,1591.585l-36.025-20.8v-41.598l36.025-20.801l36.025,20.801v41.598L2123.806,1591.585z
				 M2090.713,1569.093l33.093,19.106l33.093-19.106v-38.213l-33.093-19.106l-33.093,19.106V1569.093z"/>
		</g>
	</g>
	<g opacity="0.15" clip-path="url(#SVGID_2_)">
		<g>
			<path fill="#858ABD" d="M2573.851,1584.429l-35.025-20.222v-40.444l35.025-20.222l35.025,20.222v40.444L2573.851,1584.429z
				 M2539.758,1563.669l34.093,19.684l34.093-19.684v-39.367l-34.093-19.684l-34.093,19.684V1563.669z"/>
			<linearGradient id="SVGID_11_" gradientUnits="userSpaceOnUse" x1="2573.8506" y1="1585.4658" x2="2573.8506" y2="1503.4409">
				<stop  offset="0" style="stop-color:#FFFFFF"/>
				<stop  offset="1" style="stop-color:#FFFFFF;stop-opacity:0"/>
			</linearGradient>
			<path fill="url(#SVGID_11_)" d="M2573.851,1585.584l-36.025-20.8v-41.598l36.025-20.801l36.025,20.801v41.598L2573.851,1585.584z
				 M2540.758,1563.092l33.093,19.106l33.093-19.106v-38.213l-33.093-19.106l-33.093,19.106V1563.092z"/>
		</g>
	</g>
	<g opacity="0.15" clip-path="url(#SVGID_2_)">
		<g>
			<path fill="#858ABD" d="M1404.025,1716.442L1369,1696.221v-40.444l35.025-20.222l35.025,20.222v40.444L1404.025,1716.442z
				 M1369.933,1695.683l34.093,19.684l34.093-19.684v-39.367l-34.093-19.684l-34.093,19.684V1695.683z"/>
			<linearGradient id="SVGID_12_" gradientUnits="userSpaceOnUse" x1="1404.0254" y1="1717.4795" x2="1404.0254" y2="1635.4546">
				<stop  offset="0" style="stop-color:#FFFFFF"/>
				<stop  offset="1" style="stop-color:#FFFFFF;stop-opacity:0"/>
			</linearGradient>
			<path fill="url(#SVGID_12_)" d="M1404.025,1717.598l-36.025-20.8V1655.2l36.025-20.801l36.025,20.801v41.598L1404.025,1717.598z
				 M1370.933,1695.105l33.093,19.106l33.093-19.106v-38.213l-33.093-19.106l-33.093,19.106V1695.105z"/>
		</g>
	</g>
	<g opacity="0.15" clip-path="url(#SVGID_2_)">
		<g>
			<path fill="#858ABD" d="M1443.973,1448.38l-40.652-23.47v-46.942l40.652-23.471l40.653,23.471v46.942L1443.973,1448.38z
				 M1404.403,1424.285l39.569,22.846l39.57-22.846v-45.691l-39.57-22.846l-39.569,22.846V1424.285z"/>
			<linearGradient id="SVGID_13_" gradientUnits="userSpaceOnUse" x1="1443.9727" y1="1449.583" x2="1443.9727" y2="1354.3804">
				<stop  offset="0" style="stop-color:#FFFFFF"/>
				<stop  offset="1" style="stop-color:#FFFFFF;stop-opacity:0"/>
			</linearGradient>
			<path fill="url(#SVGID_13_)" d="M1443.973,1449.721l-41.813-24.141v-48.281l41.813-24.143l41.813,24.143v48.281
				L1443.973,1449.721z M1405.563,1423.615l38.409,22.176l38.41-22.176v-44.352l-38.41-22.177l-38.409,22.177V1423.615z"/>
		</g>
	</g>
	<g opacity="0.15" clip-path="url(#SVGID_2_)">
		<g>
			<path fill="#858ABD" d="M1428.872,453.545l-120.781-69.735V244.342l120.781-69.734l120.785,69.734v139.468L1428.872,453.545z
				 M1311.305,381.955l117.567,67.878l117.569-67.878V246.199l-117.569-67.878l-117.567,67.878V381.955z"/>
			<linearGradient id="SVGID_14_" gradientUnits="userSpaceOnUse" x1="1550.334" y1="314.0767" x2="1308.1732" y2="314.0766">
				<stop  offset="0" style="stop-color:#FFFFFF"/>
				<stop  offset="1" style="stop-color:#FFFFFF;stop-opacity:0"/>
			</linearGradient>
			<path fill="url(#SVGID_14_)" d="M1428.872,454.7l-121.781-70.313V243.765l0.5-0.289l121.281-70.023l121.785,70.312v140.623
				l-0.5,0.289L1428.872,454.7z M1309.091,383.233l119.781,69.157l119.785-69.157V244.919l-119.785-69.157l-119.781,69.157V383.233z
				 M1428.872,450.988l-118.567-68.456v-136.91l0.5-0.289l118.067-68.167l118.569,68.456v136.91l-0.5,0.289L1428.872,450.988z
				 M1312.305,381.377l116.567,67.301l116.569-67.301V246.776l-116.569-67.3l-116.567,67.3V381.377z"/>
		</g>
	</g>
	<g opacity="0.15" clip-path="url(#SVGID_2_)">
		<g>
			<path fill="#858ABD" d="M2448.713,1687.123l-120.781-69.735V1477.92l120.781-69.734l120.785,69.734v139.468L2448.713,1687.123z
				 M2331.146,1615.531l117.567,67.879l117.569-67.879v-135.756l-117.569-67.877l-117.567,67.877V1615.531z"/>
			<linearGradient id="SVGID_15_" gradientUnits="userSpaceOnUse" x1="2570.1748" y1="1547.6533" x2="2328.0144" y2="1547.6533">
				<stop  offset="0" style="stop-color:#FFFFFF"/>
				<stop  offset="1" style="stop-color:#FFFFFF;stop-opacity:0"/>
			</linearGradient>
			<path fill="url(#SVGID_15_)" d="M2448.713,1688.277l-121.781-70.313v-140.623l0.5-0.289l121.281-70.022l121.785,70.312v140.623
				l-0.5,0.289L2448.713,1688.277z M2328.932,1616.811l119.781,69.157l119.785-69.157v-138.314l-119.785-69.156l-119.781,69.156
				V1616.811z M2448.713,1684.564l-118.567-68.455v-136.91l0.5-0.289l118.067-68.167l118.569,68.456v136.91l-0.5,0.289
				L2448.713,1684.564z M2332.146,1614.955l116.567,67.301l116.569-67.301v-134.602l-116.569-67.301l-116.567,67.301V1614.955z"/>
		</g>
	</g>
	<path opacity="0.12" clip-path="url(#SVGID_2_)" fill="#FFFFFF" d="M1746.723,1443.283l-0.529-0.309l-129.44-75.497
		l-204.819-119.427l-32.731-19.094l57.829-424.508l36.912-27.392l220.945-163.925l131.829-97.826l431.8,116.396l-12.27,508.23
		l-53.472,32.482l-291.947,177.298l-47.7,28.946L1746.723,1443.283z M1381.146,1227.637l31.928,18.595l204.91,119.29l128.968,75.104
		l105.162-63.911l47.667-28.944l291.739-177.285l52.071-31.65l12.379-505.402l-47.299-12.79l-254.983-68.912l-40.116-10.821
		l-87.033-23.528l-130.856,97.065l-221.068,163.95l-36.004,26.708L1381.146,1227.637z M1751.208,1391.656l-15.103-8.487
		l-114.285-64.611l-204.406-115.533l32.568-247.266l227.731-163.004l-42.394,410.058l126.432,66.136l103.084-65.245l46.7-29.531
		l287.471-181.925l-3.913,126.506l-0.666,0.41l-290.073,178.356l-136.335,83.826L1751.208,1391.656z M1419.383,1201.687
		l203.661,114.927l114.333,64.535l14.057,7.886l15.636-9.597l136.244-83.821l289.202-177.932l3.789-121.159l-283.736,179.457
		l-46.734,29.534l-104.301,65.976l-0.521-0.272l-127.852-66.99l42.27-407.834l-223.813,160.129L1419.383,1201.687z
		 M1765.828,1222.038l-14.849-7.48l-75.346-38.194l40.486-411.105l94.938-67.924l90.415,29.788l-31.396,428.263l-0.591,0.378
		l-87.171,55.754L1765.828,1222.038z M1677.824,1174.927l74.398,37.65l13.821,6.952l15.335-9.794l86.521-55.37l31.332-425.672
		l-75.2-24.847l-13.163-4.331l-14.363,10.244l-78.514,56.177L1677.824,1174.927z M1914.146,1127.188l29.109-429.357l-40.286-12.726
		l-88.475-28.003l-133.166,96.105l-226.161,163.189l13.045-99.041l355.025-261.307l128.758,36.414l257.128,72.768l-8.623,278.774
		l-0.652,0.417L1914.146,1127.188z M1814.681,654.946l0.487,0.154l88.996,28.103l41.36,13.037l-28.813,426.878l281.265-180.028
		l8.637-276.153l-255.812-72.572l-127.747-36.217l-14.108,10.349l-117.451,86.43l-221.668,163.1l-12.476,94.882l223.173-161.103
		L1814.681,654.946z"/>
	<g opacity="0.12" clip-path="url(#SVGID_2_)">
		<path opacity="0.3" fill="#FFFFFF" d="M1799.289,545.513l-355.025,261.307l-13.045,99.041l226.161-163.189l133.166-96.105
			l88.475,28.002l40.286,12.726l-29.109,429.356l285.702-182.765l0.651-0.417l8.624-278.775l-257.128-72.767L1799.289,545.513z
			 M2174.028,932.552l-281.265,180.028l28.813-426.878l-41.36-13.037l-88.996-28.103l-0.487-0.154l-134.156,96.859l-223.173,161.103
			l12.476-94.881l221.668-163.1l117.451-86.431l14.108-10.349l127.747,36.217l255.812,72.572L2174.028,932.552z"/>
		<path opacity="0.3" fill="#FFFFFF" d="M1840.888,1193.166l-103.085,65.245l-126.431-66.136l42.394-410.058l-227.731,163.004
			l-32.569,247.266l204.408,115.532l114.285,64.612l15.102,8.487l16.812-10.312l136.335-83.825l290.073-178.356l0.666-0.41
			l3.913-126.506l-287.471,181.925L1840.888,1193.166z M2172.356,985.988l-3.789,121.158l-289.202,177.933l-136.244,83.821
			l-15.636,9.597l-14.057-7.887l-114.333-64.534l-203.662-114.927l32.234-245.163l223.813-160.128l-42.27,407.833l127.852,66.991
			l0.521,0.271l104.302-65.975l46.733-29.534L2172.356,985.988z"/>
		<path opacity="0.3" fill="#FFFFFF" d="M1741.88,1211.501l16.486-10.522l87.171-55.753l0.591-0.378l31.396-428.263l-90.415-29.788
			l-94.938,67.924l-40.486,411.105l75.346,38.193L1741.88,1211.501z M1694.044,755.399l78.514-56.177l14.362-10.244l13.164,4.331
			l75.2,24.847l-31.332,425.672l-86.522,55.37l-15.334,9.794l-13.821-6.952l-74.399-37.65L1694.044,755.399z"/>
		<path opacity="0.3" fill="#FFFFFF" d="M1802.77,504.77l-131.829,97.826l-220.945,163.925l-36.912,27.392l-57.829,424.507
			l32.731,19.095l204.819,119.426l129.44,75.498l0.529,0.308l106.405-64.624l47.701-28.945l291.947-177.298l53.472-32.482
			l12.27-508.23L1802.77,504.77z M2219.645,1128.296l-52.072,31.65l-291.739,177.286l-47.667,28.944l-105.162,63.911
			l-128.968-75.104l-204.909-119.289l-31.929-18.596l57.464-422.532l36.004-26.708l221.068-163.95l130.856-97.065l87.033,23.528
			l40.116,10.82l254.983,68.913l47.299,12.789L2219.645,1128.296z"/>
	</g>
	<g clip-path="url(#SVGID_2_)">
		<path opacity="0.3" fill="#FFFFFF" d="M1802.993,542.875l-358.729,263.944l-4.487,34.067c0.582-0.357,1.194-0.65,1.828-0.887
			l4.274-32.51l221.668-163.1l117.451-86.431l20.64-15.083H1802.993z"/>
		<path opacity="0.3" fill="#FFFFFF" d="M1394.329,1201.396l33.381-254.826l167.302-119.696c-0.138-0.605-0.239-1.202-0.284-1.785
			l-168.651,120.716l-33.536,255.591H1394.329z"/>
		<polygon opacity="0.3" fill="#FFFFFF" points="1652.963,1173.146 1694.013,756.212 1789.97,687.803 1789.97,685.786 
			1692.141,755.533 1650.918,1173.146 		"/>
	</g>
	<path opacity="0.12" clip-path="url(#SVGID_2_)" fill="#FFFFFF" d="M1696.489,1423.031l-0.529-0.309l-129.44-75.497
		l-204.82-119.427l-32.731-19.094l57.829-424.507l36.912-27.392l220.945-163.925l131.829-97.826l431.8,116.396l-12.271,508.23
		l-53.471,32.483l-291.948,177.297l-47.7,28.946L1696.489,1423.031z M1330.913,1207.385l31.928,18.595l204.909,119.29
		l128.969,75.104l105.161-63.911l47.668-28.943l291.739-177.286l52.071-31.65l12.379-505.402l-47.3-12.789l-254.982-68.913
		l-40.117-10.821l-87.033-23.528l-130.855,97.065l-221.068,163.95l-36.004,26.708L1330.913,1207.385z M1700.975,1371.404
		l-15.103-8.487l-114.285-64.611l-204.407-115.533l32.568-247.266l227.732-163.003l-42.394,410.057l126.431,66.136l103.084-65.245
		l46.701-29.53l287.471-181.926l-3.913,126.506l-0.667,0.411l-290.072,178.355l-136.335,83.826L1700.975,1371.404z
		 M1369.148,1181.436l203.662,114.926l114.332,64.535l14.058,7.887l15.636-9.598l136.243-83.821l289.202-177.932l3.789-121.158
		l-283.736,179.456l-46.733,29.534l-104.302,65.976l-0.521-0.272l-127.852-66.99l42.271-407.833l-223.813,160.128L1369.148,1181.436
		z M1715.595,1201.786l-14.85-7.48l-75.345-38.194l40.485-411.105l94.938-67.924l90.414,29.788l-31.396,428.264l-0.59,0.377
		l-87.171,55.754L1715.595,1201.786z M1627.59,1154.676l74.398,37.649l13.822,6.953l15.334-9.795l86.522-55.37l31.332-425.672
		l-75.2-24.847l-13.164-4.331l-14.363,10.244l-78.513,56.177L1627.59,1154.676z M1863.912,1106.937l29.109-429.356l-40.286-12.726
		l-88.475-28.002l-133.166,96.105l-226.162,163.189l13.045-99.041l355.025-261.307l128.759,36.414l257.127,72.768l-8.623,278.775
		l-0.651,0.417L1863.912,1106.937z M1764.447,634.694l0.486,0.154l88.997,28.103l41.36,13.037l-28.813,426.878l281.264-180.028
		l8.638-276.153l-255.812-72.572l-127.748-36.217l-14.107,10.349l-117.451,86.431l-221.669,163.1l-12.475,94.881l223.173-161.103
		L1764.447,634.694z"/>
	<g opacity="0.4" clip-path="url(#SVGID_2_)">
		<linearGradient id="SVGID_16_" gradientUnits="userSpaceOnUse" x1="1311.126" y1="-2665.373" x2="1311.1254" y2="10858.5615">
			<stop  offset="0" style="stop-color:#FFFFFF"/>
			<stop  offset="1" style="stop-color:#FFFFFF;stop-opacity:0"/>
		</linearGradient>
		<polygon fill="url(#SVGID_16_)" points="1466.251,814.729 1156,688.848 1156,691.333 1466.251,817.229 		"/>
	</g>
	<g opacity="0.4" clip-path="url(#SVGID_2_)">
		<linearGradient id="SVGID_17_" gradientUnits="userSpaceOnUse" x1="1547.6875" y1="-2886.3916" x2="1547.6866" y2="15427.5303">
			<stop  offset="0" style="stop-color:#FFFFFF"/>
			<stop  offset="1" style="stop-color:#FFFFFF;stop-opacity:0"/>
		</linearGradient>
		<polygon fill="url(#SVGID_17_)" points="1760.875,781.634 1334.5,613.513 1334.5,616 1760.875,784.125 		"/>
	</g>
	<g opacity="0.2" clip-path="url(#SVGID_2_)">
		<linearGradient id="SVGID_18_" gradientUnits="userSpaceOnUse" x1="2179.0039" y1="-2622.106" x2="2179.0032" y2="15691.8164">
			<stop  offset="0" style="stop-color:#FFFFFF"/>
			<stop  offset="1" style="stop-color:#FFFFFF;stop-opacity:0"/>
		</linearGradient>
		<polygon fill="url(#SVGID_18_)" points="2322.167,990.698 2035.84,877.798 2035.84,880.286 2322.167,993.188 		"/>
	</g>
	<g opacity="0.2" clip-path="url(#SVGID_2_)">
		<linearGradient id="SVGID_19_" gradientUnits="userSpaceOnUse" x1="2136.2891" y1="-2479.9932" x2="2136.2883" y2="15833.8232">
			<stop  offset="0" style="stop-color:#FFFFFF"/>
			<stop  offset="1" style="stop-color:#FFFFFF;stop-opacity:0"/>
		</linearGradient>
		<polygon fill="url(#SVGID_19_)" points="2322,1166.343 1950.579,1019.891 1950.579,1022.377 2322,1168.833 		"/>
	</g>
	<path clip-path="url(#SVGID_2_)" fill="none" stroke="#FFFFFF" stroke-width="3" stroke-miterlimit="10" d="M1368.724,1105.006"/>
	<path clip-path="url(#SVGID_2_)" fill="none" stroke="#FFFFFF" stroke-width="3" stroke-miterlimit="10" d="M1711.33,1250.178"/>
	<g opacity="0.4" clip-path="url(#SVGID_2_)">
		<linearGradient id="SVGID_20_" gradientUnits="userSpaceOnUse" x1="1341.4795" y1="-5319.2402" x2="1341.4789" y2="10040.0996">
			<stop  offset="0" style="stop-color:#FFFFFF"/>
			<stop  offset="1" style="stop-color:#FFFFFF;stop-opacity:0"/>
		</linearGradient>
		<polygon fill="url(#SVGID_20_)" points="1520.625,980.975 1162.333,843.849 1162.333,846.333 1520.625,983.457 		"/>
	</g>
	<g opacity="0.3" clip-path="url(#SVGID_2_)">
		<g>
			<linearGradient id="SVGID_21_" gradientUnits="userSpaceOnUse" x1="1692.7432" y1="754.8711" x2="1692.7438" y2="754.8719">
				<stop  offset="0" style="stop-color:#FFFFFF"/>
				<stop  offset="1" style="stop-color:#FFFFFF;stop-opacity:0"/>
			</linearGradient>
			<polygon fill="url(#SVGID_21_)" points="1692.744,754.871 1692.743,754.872 1692.743,754.871 			"/>
			<linearGradient id="SVGID_22_" gradientUnits="userSpaceOnUse" x1="1716.3682" y1="765.9409" x2="1716.3682" y2="765.9409">
				<stop  offset="0" style="stop-color:#FFFFFF"/>
				<stop  offset="1" style="stop-color:#FFFFFF;stop-opacity:0"/>
			</linearGradient>
			<path fill="url(#SVGID_22_)" d="M1716.368,765.941L1716.368,765.941L1716.368,765.941z"/>
		</g>
	</g>
	<g clip-path="url(#SVGID_2_)">
		<g opacity="0.3">
			<linearGradient id="SVGID_23_" gradientUnits="userSpaceOnUse" x1="1627.6777" y1="404.936" x2="1901.5936" y2="1349.7112">
				<stop  offset="0" style="stop-color:#FFFFFF;stop-opacity:0.53"/>
				<stop  offset="1" style="stop-color:#FFFFFF;stop-opacity:0"/>
			</linearGradient>
			<path fill="url(#SVGID_23_)" d="M1656.259,1590.871l-476.681-307.499l82.924-550.242l500.53-380.898l590.858,133.517
				l-0.134,699.792L1656.259,1590.871z M1192.664,1274.483l465.268,296.975l675.359-394.399l1.935-678.634l-573.401-132.196
				l-489.029,371.169L1192.664,1274.483z"/>
		</g>
		<linearGradient id="SVGID_24_" gradientUnits="userSpaceOnUse" x1="1627.9014" y1="404.8716" x2="1901.8171" y2="1349.6464">
			<stop  offset="0" style="stop-color:#FFFFFF;stop-opacity:0.53"/>
			<stop  offset="1" style="stop-color:#FFFFFF;stop-opacity:0"/>
		</linearGradient>
		<path fill="url(#SVGID_24_)" d="M1656.139,1592.262l-0.538-0.348l-476.955-307.91l83.124-551.177l0.44-0.335l500.909-381.258
			l0.472,0.106l591.636,133.5v701.31l-0.735,0.429L1656.139,1592.262z M1180.511,1282.738l475.867,306.743l695.907-404.549
			l0.267-698.277l-589.606-133.426l-499.712,380.204L1180.511,1282.738z M1657.812,1572.842l-0.537-0.344l-465.547-297.379
			l80.33-538.028l0.441-0.335l489.412-371.529l0.475,0.109l574.171,132.186l-1.811,680.139l-0.729,0.426L1657.812,1572.842z
			 M1193.601,1273.847l464.45,296.229l673.787-393.62l2.059-677.128l-572.158-132.096l-488.205,370.473L1193.601,1273.847z"/>
	</g>
	<g opacity="0.5" clip-path="url(#SVGID_2_)">
		<linearGradient id="SVGID_25_" gradientUnits="userSpaceOnUse" x1="1602.1084" y1="412.4521" x2="1876.0251" y2="1357.2303">
			<stop  offset="0" style="stop-color:#FFFFFF;stop-opacity:0.53"/>
			<stop  offset="1" style="stop-color:#FFFFFF;stop-opacity:0"/>
		</linearGradient>
		<path fill="url(#SVGID_25_)" d="M2134.182,589.594l-255.03-68.838l-40.125-10.809l-87.529-23.632l-91.754,68.072l-39.589,29.373
			l-221.006,163.938l-36.459,27.049l-18.595,136.61l-19.008,139.652l-20.044,147.259l32.33,18.845l204.865,119.357l38.39,22.375
			l91.079,53.079l105.783-64.268l47.685-28.944l291.844-177.292l52.771-32.066l4.319-177.639l4.063-167.06l3.941-162.118
			L2134.182,589.594z M2118.673,1088.188l-289.971,178.349l-47.396,29.16l-88.895,54.664l-16.223,9.954l-14.58-8.188l-76.096-42.981
			l-38.213-21.592l-204.034-115.229l13.765-104.594l18.637-141.621l225.772-161.565l-37.474,362.004l-4.859,46.941l37.803,19.791
			l89.601,46.908l103.692-65.61l46.718-29.533l285.604-180.69L2118.673,1088.188z M1793.856,1124.846l-87.141,55.751l-15.911,10.158
			l-14.336-7.218l-74.872-37.921l40.328-410.048l79.014-56.548l14.894-10.625l13.655,4.487l75.734,24.996L1793.856,1124.846z
			 M2124.105,913.519l-283.808,181.604l25.955-383.694l3.005-44.423l-40.823-12.881l-88.979-28.13l-93.385,67.408l-40.276,29.075
			l-224.667,162.146l12.761-96.961l222.077-163.435l39.79-29.289l77.629-57.135l14.629-10.734l13.439,3.787l74.487,21.096
			l40.326,11.432l256.471,72.67l-3.52,113.121L2124.105,913.519z"/>
	</g>
	<g clip-path="url(#SVGID_2_)">
		<linearGradient id="SVGID_26_" gradientUnits="userSpaceOnUse" x1="1535.4219" y1="540.8774" x2="1815.4219" y2="1286.8774">
			<stop  offset="0" style="stop-color:#FFFFFF"/>
			<stop  offset="1" style="stop-color:#FFFFFF;stop-opacity:0"/>
		</linearGradient>
		<path fill="url(#SVGID_26_)" d="M1686.58,1238.641l-0.511-0.269l-125.74-65.774l0.07-0.676l41.794-404.259l0.555-5.369l-7.5,5.369
			l-220.577,157.883l-29.738,225.769l-2.854,21.672l2.854,1.613l305.945,172.894l18.85,10.652l6.321,3.572l5.811-3.572
			l58.014-35.667l380.218-233.758l0.353-11.403l3.57-115.49l-3.57,2.26L1686.58,1238.641z M2120.973,966.699l-0.529,16.923
			l-3.248,103.849l-0.46,0.282l-385.437,237.136l-39.476,24.287l-14.61,8.97l-0.944,0.58l-1.034-0.58l-12.938-7.259l-7.809-4.408
			l-106.528-60.129l-203.026-114.568l-0.54-0.305l0.54-4.105l0.044-0.334l31.626-240.546L1598.6,767.663l1.472-1.053l-0.109,1.053
			l-0.115,1.104l-42.021,405.431l128.553,67.355l104.378-66.024l46.733-29.535l282.953-178.96L2120.973,966.699z"/>
		<linearGradient id="SVGID_27_" gradientUnits="userSpaceOnUse" x1="1657.252" y1="495.1499" x2="1937.252" y2="1241.1499">
			<stop  offset="0" style="stop-color:#FFFFFF"/>
			<stop  offset="1" style="stop-color:#FFFFFF;stop-opacity:0"/>
		</linearGradient>
		<path fill="url(#SVGID_27_)" d="M1758.632,528.747l-10.588-2.996l-4.07,2.996l-351.074,258.398l-9.854,74.823l-3.247,24.654
			l3.247-2.343l356.316-257.121l0.479,0.151l87.918,27.827l40.165,12.688l-0.053,0.784l-28.687,423.124l-0.383,5.642l8.819-5.642
			l277.875-177.759l5.279-170.687l3.35-108.297l-3.35-0.948L1758.632,528.747z M2131.287,636.932l-0.512,16.389l-0.012,0.375
			l-8.108,259.179l-0.443,0.284l-278.988,178.572l-1.492,0.955l0.064-0.955l0.066-0.989L1870.531,666l-131.042-41.356
			l-134.22,96.907l-222.225,160.418l-0.646,0.467l0.646-4.917l11.77-89.527l352.365-259.245l0.744-0.548l1.932,0.548l0.235,0.067
			l125.506,35.582l255.179,72.392L2131.287,636.932z"/>
		<linearGradient id="SVGID_28_" gradientUnits="userSpaceOnUse" x1="1566.1582" y1="529.3408" x2="1846.1582" y2="1275.3408">
			<stop  offset="0" style="stop-color:#FFFFFF"/>
			<stop  offset="1" style="stop-color:#FFFFFF;stop-opacity:0"/>
		</linearGradient>
		<path fill="url(#SVGID_28_)" d="M1603.363,1147.885l80.492,40.762l6.82,3.454l5.412-3.454l11.153-7.119l87.827-56.174
			l28.306-386.108l3.105-42.361l-3.105-1.023l-78.12-25.737l-9.385-3.092l-4.321,3.092l-90.743,64.923l-37.441,380.189
			l-3.063,31.098L1603.363,1147.885z M1603.396,1138.958l39.586-403.056l0.369-0.264l78.084-55.871l13.521-9.643l0.777-0.554
			l1.679,0.554l85.962,28.384l0.527,0.174l-0.527,7.172l-0.028,0.385l-30.762,417.909l-0.422,0.271l-86.031,55.056l-14.359,9.171
			l-0.899,0.574l-1.142-0.574l-12.596-6.336l-73.771-37.331l-0.531-0.269l0.531-5.414L1603.396,1138.958z"/>
		<linearGradient id="SVGID_29_" gradientUnits="userSpaceOnUse" x1="1599.7666" y1="516.7266" x2="1879.7666" y2="1262.7266">
			<stop  offset="0" style="stop-color:#FFFFFF"/>
			<stop  offset="1" style="stop-color:#FFFFFF;stop-opacity:0"/>
		</linearGradient>
		<path fill="url(#SVGID_29_)" d="M2180.136,600.545L1816.414,502.5l-0.001,0l-53.87-14.521l-11.021-2.971l-4.004,2.971
			l-73.521,54.551v0l-312.279,231.707l-55.021,403.892l-2.832,20.789l2.832,1.652l29.992,17.497l204.82,119.427l47.136,27.491
			l0.001,0.001l76.723,44.747l6.193,3.612l5.948-3.612l213.752-129.808h0.002h0.001l0.001-0.001l279.978-170.023l8.892-368.318
			l3.383-140.126L2180.136,600.545z M2180.126,624.629l-11.854,483.988l-0.466,0.285l-51.531,31.322l-234.089,142.253l-0.001,0.001
			l-57.647,35.031l-47.669,28.944l-104.122,63.279l-0.958,0.582l-0.998-0.582l-0.258-0.15l-78.309-45.603h-0.001l-49.321-28.723
			l-204.908-119.289l-31.295-18.227l-0.541-0.314l0.541-3.977l0.045-0.33l56.855-418.052l0.169-0.125l35.78-26.542l221.068-163.951
			l58.426-43.339l0.001,0l0.002,0l71.629-53.133l0.736-0.546l2.021,0.546l58.46,15.792h0.001l66.592,17.989l254.985,68.913
			l46.667,12.619l0.51,0.138l-0.51,20.801L2180.126,624.629z"/>
	</g>
	<polygon opacity="0.12" clip-path="url(#SVGID_2_)" fill="#FFFFFF" points="2182.461,601.519 2181.703,603.369 2231.006,623.558 
		2218.68,1126.827 2169.875,1107.073 2169.125,1108.927 2217.436,1128.48 1725.92,1430.875 1697.335,1420.146 1696.54,1421.979 
		1726.08,1433.125 2220.631,1128.863 2233.022,622.918 2233.039,622.229 	"/>
</g>
</svg>
