<svg id="Ebene_1" data-name="Ebene 1" xmlns="http://www.w3.org/2000/svg" viewBox="0 0 371.02 119.5"><defs><style>.cls-1{fill:#fff;}</style></defs><title>incoqnito_logo_white</title><path class="cls-1" d="M134.92,54.6,105.08,37.37l-5.13-3L88.3,27.68,76.66,34.41l-5.13,3L41.69,54.6l-5.13,3v59.75l5.13,3L71.53,137.5l5.13,3,11.64,6.73L100,140.46l5.13-3,29.84-17.23,5.13-3V57.56Zm0,59.75-29.84,17.23-5.13,3-9.82,5.66-1.82,1-1.83-1-9.82-5.67-5.13-3L41.69,114.35V80.53L71.53,63.31v54.17l5.13,3,11.64,6.73L100,120.44l5.13-3,29.84-17.23Zm-35,.17-9.82,5.67-1.82,1-1.83-1-9.82-5.67V60.35l9.82-5.68,1.83-1.05,1.82,1.05L100,60.34Zm35-20.19-29.84,17.23V57.38l-5.13-3L88.3,47.7,76.66,54.43l-5.13,3L41.69,74.61V60.52L71.53,43.29l5.13-3,9.82-5.68,1.83-1,1.82,1L100,40.32l5.13,3,29.84,17.23V94.33Z" transform="translate(-36.56 -27.68)"/><path class="cls-1" d="M165,72.47h4.43v30.34H165Z" transform="translate(-36.56 -27.68)"/><path class="cls-1" d="M180.16,102.89H176V72L195.6,95.44V72.51h4.18v30.38h-4.06L180.16,83.73Z" transform="translate(-36.56 -27.68)"/><path class="cls-1" d="M221.3,98.63a9.62,9.62,0,0,0,4.86-1.26A10.47,10.47,0,0,0,229.78,94l3.6,2.69a15,15,0,0,1-5.19,4.47,15,15,0,0,1-12.73.46,15.21,15.21,0,0,1-8-8,15.34,15.34,0,0,1,0-11.8,15.2,15.2,0,0,1,3.21-4.8,15.48,15.48,0,0,1,4.75-3.25,15,15,0,0,1,12.73.46,15,15,0,0,1,5.19,4.47l-3.6,2.69A10.44,10.44,0,0,0,226.16,78a9.63,9.63,0,0,0-4.86-1.27,9.52,9.52,0,0,0-4,.87A10.73,10.73,0,0,0,214,79.92a11.53,11.53,0,0,0-2.23,3.48,11.35,11.35,0,0,0,0,8.52A11.4,11.4,0,0,0,214,95.4a10.73,10.73,0,0,0,3.29,2.36A9.52,9.52,0,0,0,221.3,98.63Z" transform="translate(-36.56 -27.68)"/><path class="cls-1" d="M270,85.49a12.88,12.88,0,0,0-.34-1.75,15.1,15.1,0,0,0-.69-2.06,15.57,15.57,0,0,0-1.11-2.15,14.33,14.33,0,0,0-2.12-2.71A15.23,15.23,0,0,0,261,73.55a15.15,15.15,0,0,0-11.82,0,15.27,15.27,0,0,0-9.21,14.11,15.08,15.08,0,0,0,1.18,5.92,15.22,15.22,0,0,0,8,8.11,15.15,15.15,0,0,0,11.82,0,15.23,15.23,0,0,0,4.82-3.27,14.66,14.66,0,0,0,2.12-2.71A15.33,15.33,0,0,0,269,93.58a16,16,0,0,0,.68-2,15,15,0,0,0,.36-1.87,15.76,15.76,0,0,0,.14-2.07A15.51,15.51,0,0,0,270,85.49Zm-5.32,6.44a11.09,11.09,0,0,1-2.25,3.48,10.73,10.73,0,0,1-3.35,2.35,9.8,9.8,0,0,1-4.08.87,9.68,9.68,0,0,1-4.06-.87,10.87,10.87,0,0,1-3.33-2.35,11.19,11.19,0,0,1-3.08-7.75,11.38,11.38,0,0,1,3.08-7.81A10.8,10.8,0,0,1,251,77.47a9.83,9.83,0,0,1,4.06-.86,10,10,0,0,1,4.08.86,10.65,10.65,0,0,1,3.35,2.38,11.28,11.28,0,0,1,2.25,3.52,11.08,11.08,0,0,1,.83,4.29A10.91,10.91,0,0,1,264.71,91.93Z" transform="translate(-36.56 -27.68)"/><path class="cls-1" d="M317.77,102.89h-4.18V72l19.62,23.47V72.51h4.18v30.38h-4.06L317.77,83.73Z" transform="translate(-36.56 -27.68)"/><path class="cls-1" d="M343.93,72.47h4.43v30.34h-4.43Z" transform="translate(-36.56 -27.68)"/><path class="cls-1" d="M354.89,72.47h19.37v4.27h-7.49v26h-4.38v-26h-7.5Z" transform="translate(-36.56 -27.68)"/><path class="cls-1" d="M392.43,72.35a14.74,14.74,0,0,1,5.92,1.2,15.25,15.25,0,0,1,9.23,14.11,15.08,15.08,0,0,1-1.18,5.92,15.17,15.17,0,0,1-8,8.11,15.15,15.15,0,0,1-11.82,0,15.22,15.22,0,0,1-8-8.11,15.08,15.08,0,0,1-1.18-5.92,15.23,15.23,0,0,1,9.21-14.11A14.61,14.61,0,0,1,392.43,72.35Zm0,26.28a9.84,9.84,0,0,0,4.08-.87,10.57,10.57,0,0,0,3.35-2.35,11.09,11.09,0,0,0,2.25-3.48,10.91,10.91,0,0,0,.83-4.27,11.08,11.08,0,0,0-.83-4.29,11.28,11.28,0,0,0-2.25-3.52,10.46,10.46,0,0,0-3.35-2.37,9.84,9.84,0,0,0-4.08-.87,9.68,9.68,0,0,0-4.06.87A10.6,10.6,0,0,0,385,79.85a11.28,11.28,0,0,0-2.25,3.52,11.08,11.08,0,0,0-.83,4.29,10.91,10.91,0,0,0,.83,4.27A11.09,11.09,0,0,0,385,95.41a10.71,10.71,0,0,0,3.33,2.35A9.68,9.68,0,0,0,392.43,98.63Z" transform="translate(-36.56 -27.68)"/><path class="cls-1" d="M258.18,88.88a3,3,0,0,0,.24-1.22,3.14,3.14,0,0,0-.25-1.3,3.37,3.37,0,0,0-1.84-1.84,3.31,3.31,0,0,0-1.3-.24,3.13,3.13,0,0,0-1.27.24,3.39,3.39,0,0,0-1.09.74,3.22,3.22,0,0,0-.73,1.08,3.3,3.3,0,0,0-.25,1.32,3.13,3.13,0,0,0,.24,1.27,3.49,3.49,0,0,0,.74,1.1,3.35,3.35,0,0,0,1.08.72A3.05,3.05,0,0,0,255,91h.11a2.8,2.8,0,0,0,1.18-.24,3.49,3.49,0,0,0,1.1-.74A3.66,3.66,0,0,0,258.18,88.88Z" transform="translate(-36.56 -27.68)"/><path class="cls-1" d="M395.58,88.88a3,3,0,0,0,.23-1.22,3.31,3.31,0,0,0-.24-1.3,3.37,3.37,0,0,0-1.84-1.84,3.31,3.31,0,0,0-1.3-.24,3.13,3.13,0,0,0-1.27.24,3.39,3.39,0,0,0-1.09.74,3.22,3.22,0,0,0-.73,1.08,3.3,3.3,0,0,0-.25,1.32,3.13,3.13,0,0,0,.24,1.27,3.49,3.49,0,0,0,.74,1.1,3.35,3.35,0,0,0,1.08.72,3.05,3.05,0,0,0,1.28.26h.11a2.8,2.8,0,0,0,1.18-.24,3.6,3.6,0,0,0,1.1-.74A3.66,3.66,0,0,0,395.58,88.88Z" transform="translate(-36.56 -27.68)"/><path class="cls-1" d="M307,102.89,293.71,86.18a2.19,2.19,0,0,0-.68-.58,2.53,2.53,0,0,0-.87-.28,2.48,2.48,0,0,0-.9.07,2.3,2.3,0,0,0-.83.44,2.23,2.23,0,0,0-.59.68,2.53,2.53,0,0,0-.28.87,2.3,2.3,0,0,0,.08.9,2.14,2.14,0,0,0,.41.81l.05.06h0L301,102.89Z" transform="translate(-36.56 -27.68)"/><path class="cls-1" d="M305.83,81.68a15.12,15.12,0,0,0-8.05-8.13,14.74,14.74,0,0,0-5.92-1.2,14.56,14.56,0,0,0-5.89,1.2,15.27,15.27,0,0,0-9.21,14.11,14.9,14.9,0,0,0,1.18,5.92,15.22,15.22,0,0,0,8,8.11,14.56,14.56,0,0,0,5.89,1.2,15,15,0,0,0,4.56-.69l-2.94-3.7a9.94,9.94,0,0,1-5.67-.74,10.59,10.59,0,0,1-3.33-2.35,11,11,0,0,1-2.26-3.48,11.09,11.09,0,0,1-.83-4.27,11.26,11.26,0,0,1,.83-4.29,11.13,11.13,0,0,1,2.26-3.52,10.49,10.49,0,0,1,3.33-2.37,9.63,9.63,0,0,1,4.05-.87,9.77,9.77,0,0,1,4.08.87,10.46,10.46,0,0,1,3.35,2.37,11.13,11.13,0,0,1,2.26,3.52,11.26,11.26,0,0,1,.83,4.29,11.09,11.09,0,0,1-.83,4.27,11,11,0,0,1-2.26,3.48,10.26,10.26,0,0,1-1.36,1.19l2.75,3.45a14.26,14.26,0,0,0,1.92-1.63,15.16,15.16,0,0,0,3.23-4.84A14.9,14.9,0,0,0,307,87.66,15.16,15.16,0,0,0,305.83,81.68Z" transform="translate(-36.56 -27.68)"/></svg>