<?xml version="1.0" encoding="utf-8"?>
<!-- Generator: Adobe Illustrator 22.0.1, SVG Export Plug-In . SVG Version: 6.00 Build 0)  -->
<svg version="1.1" id="Ebene_1" xmlns="http://www.w3.org/2000/svg" xmlns:xlink="http://www.w3.org/1999/xlink" x="0px" y="0px"
	 viewBox="0 0 380.6 127.4" style="enable-background:new 0 0 380.6 127.4;" xml:space="preserve">
<style type="text/css">
	.st0{display:none;}
	.st1{display:inline;fill:url(#SVGID_1_);}
	.st2{display:inline;}
	.st3{fill:#575756;}
	.st4{fill:#FFFFFF;}
</style>
<g class="st0">
	<linearGradient id="SVGID_1_" gradientUnits="userSpaceOnUse" x1="3.7884" y1="63.4655" x2="107.2815" y2="63.4655">
		<stop  offset="0" style="stop-color:#439BD6"/>
		<stop  offset="0.2727" style="stop-color:#6965AA"/>
		<stop  offset="0.6485" style="stop-color:#8A5493"/>
		<stop  offset="1" style="stop-color:#D60B51"/>
	</linearGradient>
	<path class="st1" d="M102.2,30.6L72.3,13.4l-5.1-3L55.5,3.7l-11.6,6.7l-5.1,3L8.9,30.6l-5.1,3v20v19.7v20l5.1,3l29.8,17.2l5.1,3
		l11.6,6.7l11.6-6.7l5.1-3l29.8-17.2l5.1-3v-20V53.6v-20L102.2,30.6z M102.2,90.4l-29.8,17.2l-5.1,3l-9.8,5.7l-1.8,1l-1.8-1
		l-9.8-5.7l-5.1-3L8.9,90.4V76.3V56.6l29.8-17.2v48.2v5.9l5.1,3l11.6,6.7l11.6-6.7l5.1-3l29.8-17.2V90.4z M67.2,90.6l-9.8,5.7
		l-1.8,1.1l-1.8-1.1l-9.8-5.7V36.4l9.8-5.7l1.8-1.1l1.8,1.1l9.8,5.7V90.6z M102.2,70.4L72.3,87.6V39.3v-5.9l-5.1-3l-11.6-6.7
		l-11.6,6.7l-5.1,3L8.9,50.6V36.5l29.8-17.2l5.1-3l9.8-5.7l1.8-1l1.8,1l9.8,5.7l5.1,3l29.8,17.2v14.1V70.4z"/>
	<g class="st2">
		<path class="st3" d="M134.4,48.5h4.4v30.3h-4.4V48.5z"/>
		<path class="st3" d="M149.6,78.9h-4.2V48L165,71.5V48.5h4.2v30.4h-4.1l-15.6-19.2V78.9z"/>
		<path class="st3" d="M190.7,74.7c1.8,0,3.4-0.4,4.9-1.3c1.5-0.8,2.7-2,3.6-3.4l3.6,2.7c-1.4,1.9-3.1,3.4-5.2,4.5
			c-2.1,1.1-4.4,1.7-6.9,1.7c-2.1,0-4-0.4-5.8-1.2c-1.8-0.8-3.4-1.9-4.8-3.2c-1.4-1.4-2.4-3-3.2-4.8c-0.8-1.8-1.2-3.8-1.2-5.9
			c0-2.1,0.4-4.1,1.2-5.9c0.8-1.8,1.9-3.4,3.2-4.8c1.4-1.4,2.9-2.4,4.8-3.2c1.8-0.8,3.8-1.2,5.8-1.2c2.5,0,4.8,0.6,6.9,1.7
			c2.1,1.1,3.8,2.6,5.2,4.5l-3.6,2.7c-0.9-1.4-2.1-2.5-3.6-3.4c-1.5-0.8-3.1-1.3-4.9-1.3c-1.4,0-2.8,0.3-4,0.9
			c-1.3,0.6-2.4,1.4-3.3,2.4c-0.9,1-1.7,2.2-2.2,3.5c-0.6,1.3-0.8,2.7-0.8,4.3c0,1.5,0.3,2.9,0.8,4.3c0.6,1.3,1.3,2.5,2.2,3.5
			c0.9,1,2,1.8,3.3,2.4C187.9,74.4,189.3,74.7,190.7,74.7z"/>
		<path class="st3" d="M239.4,61.5c-0.1-0.6-0.2-1.2-0.3-1.7c-0.2-0.7-0.4-1.4-0.7-2.1c-0.3-0.8-0.7-1.5-1.1-2.2
			c-0.6-1-1.3-1.9-2.1-2.7c-1.4-1.4-3-2.5-4.8-3.3c-1.8-0.8-3.8-1.2-5.9-1.2c-2.1,0-4.1,0.4-5.9,1.2c-1.8,0.8-3.4,1.9-4.8,3.3
			c-1.4,1.4-2.4,3-3.2,4.9c-0.8,1.9-1.2,3.9-1.2,6c0,2.1,0.4,4.1,1.2,5.9c0.8,1.8,1.9,3.5,3.2,4.8c1.4,1.4,3,2.5,4.8,3.3
			c1.8,0.8,3.8,1.2,5.9,1.2c2.1,0,4.1-0.4,5.9-1.2c1.9-0.8,3.5-1.9,4.8-3.3c0.8-0.8,1.5-1.7,2.1-2.7c0.4-0.7,0.8-1.4,1.1-2.1
			c0.3-0.6,0.5-1.3,0.7-2c0.2-0.6,0.3-1.2,0.4-1.9c0.1-0.7,0.1-1.4,0.1-2.1C239.6,63,239.5,62.2,239.4,61.5z M234.1,68
			c-0.6,1.3-1.3,2.5-2.3,3.5c-1,1-2.1,1.8-3.4,2.3c-1.3,0.6-2.6,0.9-4.1,0.9c-1.4,0-2.8-0.3-4.1-0.9c-1.3-0.6-2.4-1.4-3.3-2.3
			c-1-1-1.7-2.2-2.3-3.5c-0.6-1.3-0.8-2.8-0.8-4.3c0-1.5,0.3-2.9,0.8-4.3c0.6-1.3,1.3-2.5,2.3-3.5c1-1,2.1-1.8,3.3-2.4
			c1.3-0.6,2.6-0.9,4.1-0.9c1.4,0,2.8,0.3,4.1,0.9c1.3,0.6,2.4,1.4,3.4,2.4c1,1,1.7,2.2,2.3,3.5c0.6,1.3,0.8,2.8,0.8,4.3
			C235,65.2,234.7,66.6,234.1,68z"/>
		<path class="st3" d="M287.2,78.9H283V48l19.6,23.5V48.5h4.2v30.4h-4.1l-15.6-19.2V78.9z"/>
		<path class="st3" d="M313.3,48.5h4.4v30.3h-4.4V48.5z"/>
		<path class="st3" d="M324.3,48.5h19.4v4.3h-7.5v26h-4.4v-26h-7.5V48.5z"/>
		<path class="st3" d="M361.8,48.4c2.1,0,4.1,0.4,5.9,1.2c1.8,0.8,3.5,1.9,4.8,3.3c1.4,1.4,2.4,3,3.2,4.9c0.8,1.9,1.2,3.9,1.2,6
			c0,2.1-0.4,4.1-1.2,5.9c-0.8,1.8-1.9,3.5-3.2,4.8s-3,2.5-4.8,3.3c-1.8,0.8-3.8,1.2-5.9,1.2c-2.1,0-4.1-0.4-5.9-1.2
			c-1.8-0.8-3.4-1.9-4.8-3.3c-1.4-1.4-2.4-3-3.2-4.8c-0.8-1.8-1.2-3.8-1.2-5.9c0-2.1,0.4-4.1,1.2-6c0.8-1.9,1.9-3.5,3.2-4.9
			c1.4-1.4,3-2.5,4.8-3.3C357.8,48.8,359.8,48.4,361.8,48.4z M361.8,74.7c1.4,0,2.8-0.3,4.1-0.9c1.3-0.6,2.4-1.4,3.4-2.3
			c1-1,1.7-2.2,2.3-3.5c0.6-1.3,0.8-2.8,0.8-4.3c0-1.5-0.3-2.9-0.8-4.3c-0.6-1.3-1.3-2.5-2.3-3.5c-1-1-2.1-1.8-3.4-2.4
			c-1.3-0.6-2.6-0.9-4.1-0.9c-1.4,0-2.8,0.3-4.1,0.9c-1.3,0.6-2.4,1.4-3.3,2.4c-1,1-1.7,2.2-2.3,3.5c-0.6,1.3-0.8,2.8-0.8,4.3
			c0,1.5,0.3,2.9,0.8,4.3c0.6,1.3,1.3,2.5,2.3,3.5c1,1,2.1,1.8,3.3,2.3C359.1,74.4,360.4,74.7,361.8,74.7z"/>
		<path class="st3" d="M227.6,64.9c0.2-0.4,0.2-0.8,0.2-1.2c0-0.5-0.1-0.9-0.2-1.3c-0.2-0.4-0.4-0.8-0.7-1.1
			c-0.3-0.3-0.7-0.5-1.1-0.7c-0.4-0.2-0.8-0.2-1.3-0.2c-0.5,0-0.9,0.1-1.3,0.2c-0.4,0.2-0.8,0.4-1.1,0.7c-0.3,0.3-0.5,0.7-0.7,1.1
			c-0.2,0.4-0.3,0.8-0.3,1.3c0,0.5,0.1,0.9,0.2,1.3c0.2,0.4,0.4,0.8,0.7,1.1c0.3,0.3,0.7,0.5,1.1,0.7c0.4,0.2,0.8,0.3,1.3,0.3h0.1
			c0.4,0,0.8-0.1,1.2-0.2c0.4-0.2,0.8-0.4,1.1-0.7C227.2,65.7,227.4,65.4,227.6,64.9z"/>
		<path class="st3" d="M365,64.9c0.2-0.4,0.2-0.8,0.2-1.2c0-0.5-0.1-0.9-0.2-1.3c-0.2-0.4-0.4-0.8-0.7-1.1c-0.3-0.3-0.7-0.5-1.1-0.7
			c-0.4-0.2-0.8-0.2-1.3-0.2c-0.5,0-0.9,0.1-1.3,0.2c-0.4,0.2-0.8,0.4-1.1,0.7c-0.3,0.3-0.5,0.7-0.7,1.1c-0.2,0.4-0.3,0.8-0.3,1.3
			c0,0.5,0.1,0.9,0.2,1.3c0.2,0.4,0.4,0.8,0.7,1.1c0.3,0.3,0.7,0.5,1.1,0.7c0.4,0.2,0.8,0.3,1.3,0.3h0.1c0.4,0,0.8-0.1,1.2-0.2
			c0.4-0.2,0.8-0.4,1.1-0.7C364.6,65.7,364.8,65.4,365,64.9z"/>
		<path class="st3" d="M276.4,78.9l-13.3-16.7c-0.2-0.3-0.4-0.4-0.7-0.6c-0.3-0.2-0.6-0.2-0.9-0.3c-0.3,0-0.6,0-0.9,0.1
			c-0.3,0.1-0.6,0.2-0.8,0.4c-0.3,0.2-0.4,0.4-0.6,0.7c-0.2,0.3-0.2,0.6-0.3,0.9c0,0.3,0,0.6,0.1,0.9c0.1,0.3,0.2,0.6,0.4,0.8l0,0.1
			c0,0,0,0,0,0l10.9,13.7H276.4z"/>
		<path class="st3" d="M275.2,57.7c-0.8-1.9-1.9-3.5-3.2-4.9c-1.4-1.4-3-2.5-4.8-3.3c-1.8-0.8-3.8-1.2-5.9-1.2
			c-2.1,0-4.1,0.4-5.9,1.2c-1.8,0.8-3.4,1.9-4.8,3.3c-1.4,1.4-2.4,3-3.2,4.9c-0.8,1.9-1.2,3.9-1.2,6c0,2.1,0.4,4.1,1.2,5.9
			c0.8,1.8,1.9,3.5,3.2,4.8c1.4,1.4,3,2.5,4.8,3.3c1.8,0.8,3.8,1.2,5.9,1.2c1.6,0,3.1-0.2,4.6-0.7l-2.9-3.7
			c-0.5,0.1-1.1,0.1-1.6,0.1c-1.4,0-2.8-0.3-4.1-0.9c-1.3-0.6-2.4-1.4-3.3-2.3c-1-1-1.7-2.2-2.3-3.5c-0.6-1.3-0.8-2.8-0.8-4.3
			c0-1.5,0.3-2.9,0.8-4.3c0.6-1.3,1.3-2.5,2.3-3.5c1-1,2.1-1.8,3.3-2.4c1.3-0.6,2.6-0.9,4.1-0.9c1.4,0,2.8,0.3,4.1,0.9
			c1.3,0.6,2.4,1.4,3.4,2.4c1,1,1.7,2.2,2.3,3.5c0.6,1.3,0.8,2.8,0.8,4.3c0,1.5-0.3,2.9-0.8,4.3c-0.6,1.3-1.3,2.5-2.3,3.5
			c-0.4,0.4-0.9,0.8-1.4,1.2l2.7,3.5c0.7-0.5,1.3-1,1.9-1.6c1.4-1.4,2.4-3,3.2-4.8c0.8-1.8,1.2-3.8,1.2-5.9
			C276.4,61.6,276,59.6,275.2,57.7z"/>
	</g>
</g>
<g>
	<path class="st4" d="M102.1,30.6L72.3,13.4l-5.1-3L55.5,3.7l-11.6,6.7l-5.1,3L8.9,30.6l-5.1,3v20v19.7v20l5.1,3l29.8,17.2l5.1,3
		l11.6,6.7l11.6-6.7l5.1-3l29.8-17.2l5.1-3v-20V53.6v-20L102.1,30.6z M102.1,90.4l-29.8,17.2l-5.1,3l-9.8,5.7l-1.8,1l-1.8-1
		l-9.8-5.7l-5.1-3L8.9,90.4V76.3V56.6l29.8-17.2v48.2v5.9l5.1,3l11.6,6.7l11.6-6.7l5.1-3l29.8-17.2V90.4z M67.2,90.6l-9.8,5.7
		l-1.8,1.1l-1.8-1.1l-9.8-5.7V36.4l9.8-5.7l1.8-1.1l1.8,1.1l9.8,5.7V90.6z M102.1,70.4L72.3,87.6V39.3v-5.9l-5.1-3l-11.6-6.7
		l-11.6,6.7l-5.1,3L8.9,50.6V36.5l29.8-17.2l5.1-3l9.8-5.7l1.8-1l1.8,1l9.8,5.7l5.1,3l29.8,17.2v14.1V70.4z"/>
	<g>
		<path class="st4" d="M132.2,48.5h4.4v30.3h-4.4V48.5z"/>
		<path class="st4" d="M147.4,78.9h-4.2V48l19.6,23.5V48.5h4.2v30.4h-4.1l-15.6-19.2V78.9z"/>
		<path class="st4" d="M188.5,74.7c1.8,0,3.4-0.4,4.9-1.3c1.5-0.8,2.7-2,3.6-3.4l3.6,2.7c-1.4,1.9-3.1,3.4-5.2,4.5
			c-2.1,1.1-4.4,1.7-6.9,1.7c-2.1,0-4-0.4-5.8-1.2c-1.8-0.8-3.4-1.9-4.8-3.2c-1.4-1.4-2.4-3-3.2-4.8c-0.8-1.8-1.2-3.8-1.2-5.9
			c0-2.1,0.4-4.1,1.2-5.9c0.8-1.8,1.9-3.4,3.2-4.8c1.4-1.4,2.9-2.4,4.8-3.2c1.8-0.8,3.8-1.2,5.8-1.2c2.5,0,4.8,0.6,6.9,1.7
			c2.1,1.1,3.8,2.6,5.2,4.5l-3.6,2.7c-0.9-1.4-2.1-2.5-3.6-3.4c-1.5-0.8-3.1-1.3-4.9-1.3c-1.4,0-2.8,0.3-4,0.9
			c-1.3,0.6-2.4,1.4-3.3,2.4c-0.9,1-1.7,2.2-2.2,3.5c-0.6,1.3-0.8,2.7-0.8,4.3c0,1.5,0.3,2.9,0.8,4.3c0.6,1.3,1.3,2.5,2.2,3.5
			c0.9,1,2,1.8,3.3,2.4C185.7,74.4,187.1,74.7,188.5,74.7z"/>
		<path class="st4" d="M237.2,61.5c-0.1-0.6-0.2-1.2-0.3-1.7c-0.2-0.7-0.4-1.4-0.7-2.1c-0.3-0.8-0.7-1.5-1.1-2.2
			c-0.6-1-1.3-1.9-2.1-2.7c-1.4-1.4-3-2.5-4.8-3.3c-1.8-0.8-3.8-1.2-5.9-1.2c-2.1,0-4.1,0.4-5.9,1.2c-1.8,0.8-3.4,1.9-4.8,3.3
			c-1.4,1.4-2.4,3-3.2,4.9c-0.8,1.9-1.2,3.9-1.2,6c0,2.1,0.4,4.1,1.2,5.9c0.8,1.8,1.9,3.5,3.2,4.8c1.4,1.4,3,2.5,4.8,3.3
			c1.8,0.8,3.8,1.2,5.9,1.2c2.1,0,4.1-0.4,5.9-1.2c1.9-0.8,3.5-1.9,4.8-3.3c0.8-0.8,1.5-1.7,2.1-2.7c0.4-0.7,0.8-1.4,1.1-2.1
			c0.3-0.6,0.5-1.3,0.7-2c0.2-0.6,0.3-1.2,0.4-1.9c0.1-0.7,0.1-1.4,0.1-2.1C237.4,63,237.3,62.2,237.2,61.5z M231.9,68
			c-0.6,1.3-1.3,2.5-2.3,3.5c-1,1-2.1,1.8-3.4,2.3c-1.3,0.6-2.6,0.9-4.1,0.9c-1.4,0-2.8-0.3-4.1-0.9c-1.3-0.6-2.4-1.4-3.3-2.3
			c-1-1-1.7-2.2-2.3-3.5c-0.6-1.3-0.8-2.8-0.8-4.3c0-1.5,0.3-2.9,0.8-4.3c0.6-1.3,1.3-2.5,2.3-3.5c1-1,2.1-1.8,3.3-2.4
			c1.3-0.6,2.6-0.9,4.1-0.9c1.4,0,2.8,0.3,4.1,0.9c1.3,0.6,2.4,1.4,3.4,2.4c1,1,1.7,2.2,2.3,3.5c0.6,1.3,0.8,2.8,0.8,4.3
			C232.7,65.2,232.5,66.6,231.9,68z"/>
		<path class="st4" d="M285,78.9h-4.2V48l19.6,23.5V48.5h4.2v30.4h-4.1L285,59.8V78.9z"/>
		<path class="st4" d="M311.1,48.5h4.4v30.3h-4.4V48.5z"/>
		<path class="st4" d="M322.1,48.5h19.4v4.3H334v26h-4.4v-26h-7.5V48.5z"/>
		<path class="st4" d="M359.6,48.4c2.1,0,4.1,0.4,5.9,1.2c1.8,0.8,3.5,1.9,4.8,3.3c1.4,1.4,2.4,3,3.2,4.9c0.8,1.9,1.2,3.9,1.2,6
			c0,2.1-0.4,4.1-1.2,5.9c-0.8,1.8-1.9,3.5-3.2,4.8c-1.4,1.4-3,2.5-4.8,3.3c-1.8,0.8-3.8,1.2-5.9,1.2c-2.1,0-4.1-0.4-5.9-1.2
			c-1.8-0.8-3.4-1.9-4.8-3.3c-1.4-1.4-2.4-3-3.2-4.8c-0.8-1.8-1.2-3.8-1.2-5.9c0-2.1,0.4-4.1,1.2-6c0.8-1.9,1.9-3.5,3.2-4.9
			c1.4-1.4,3-2.5,4.8-3.3C355.6,48.8,357.5,48.4,359.6,48.4z M359.6,74.7c1.4,0,2.8-0.3,4.1-0.9c1.3-0.6,2.4-1.4,3.4-2.3
			c1-1,1.7-2.2,2.3-3.5c0.6-1.3,0.8-2.8,0.8-4.3c0-1.5-0.3-2.9-0.8-4.3c-0.6-1.3-1.3-2.5-2.3-3.5c-1-1-2.1-1.8-3.4-2.4
			c-1.3-0.6-2.6-0.9-4.1-0.9c-1.4,0-2.8,0.3-4.1,0.9c-1.3,0.6-2.4,1.4-3.3,2.4c-1,1-1.7,2.2-2.3,3.5c-0.6,1.3-0.8,2.8-0.8,4.3
			c0,1.5,0.3,2.9,0.8,4.3c0.6,1.3,1.3,2.5,2.3,3.5c1,1,2.1,1.8,3.3,2.3C356.8,74.4,358.2,74.7,359.6,74.7z"/>
		<path class="st4" d="M225.4,64.9c0.2-0.4,0.2-0.8,0.2-1.2c0-0.5-0.1-0.9-0.2-1.3c-0.2-0.4-0.4-0.8-0.7-1.1
			c-0.3-0.3-0.7-0.5-1.1-0.7c-0.4-0.2-0.8-0.2-1.3-0.2c-0.5,0-0.9,0.1-1.3,0.2c-0.4,0.2-0.8,0.4-1.1,0.7c-0.3,0.3-0.5,0.7-0.7,1.1
			c-0.2,0.4-0.3,0.8-0.3,1.3c0,0.5,0.1,0.9,0.2,1.3c0.2,0.4,0.4,0.8,0.7,1.1c0.3,0.3,0.7,0.5,1.1,0.7c0.4,0.2,0.8,0.3,1.3,0.3h0.1
			c0.4,0,0.8-0.1,1.2-0.2c0.4-0.2,0.8-0.4,1.1-0.7C224.9,65.7,225.2,65.4,225.4,64.9z"/>
		<path class="st4" d="M362.8,64.9c0.2-0.4,0.2-0.8,0.2-1.2c0-0.5-0.1-0.9-0.2-1.3c-0.2-0.4-0.4-0.8-0.7-1.1
			c-0.3-0.3-0.7-0.5-1.1-0.7c-0.4-0.2-0.8-0.2-1.3-0.2c-0.5,0-0.9,0.1-1.3,0.2c-0.4,0.2-0.8,0.4-1.1,0.7c-0.3,0.3-0.5,0.7-0.7,1.1
			c-0.2,0.4-0.3,0.8-0.3,1.3c0,0.5,0.1,0.9,0.2,1.3c0.2,0.4,0.4,0.8,0.7,1.1c0.3,0.3,0.7,0.5,1.1,0.7c0.4,0.2,0.8,0.3,1.3,0.3h0.1
			c0.4,0,0.8-0.1,1.2-0.2c0.4-0.2,0.8-0.4,1.1-0.7C362.3,65.7,362.6,65.4,362.8,64.9z"/>
		<path class="st4" d="M274.2,78.9l-13.3-16.7c-0.2-0.3-0.4-0.4-0.7-0.6c-0.3-0.2-0.6-0.2-0.9-0.3c-0.3,0-0.6,0-0.9,0.1
			c-0.3,0.1-0.6,0.2-0.8,0.4c-0.3,0.2-0.4,0.4-0.6,0.7c-0.2,0.3-0.2,0.6-0.3,0.9c0,0.3,0,0.6,0.1,0.9c0.1,0.3,0.2,0.6,0.4,0.8l0,0.1
			c0,0,0,0,0,0l10.9,13.7H274.2z"/>
		<path class="st4" d="M273,57.7c-0.8-1.9-1.9-3.5-3.2-4.9c-1.4-1.4-3-2.5-4.8-3.3c-1.8-0.8-3.8-1.2-5.9-1.2c-2.1,0-4.1,0.4-5.9,1.2
			c-1.8,0.8-3.4,1.9-4.8,3.3c-1.4,1.4-2.4,3-3.2,4.9c-0.8,1.9-1.2,3.9-1.2,6c0,2.1,0.4,4.1,1.2,5.9c0.8,1.8,1.9,3.5,3.2,4.8
			c1.4,1.4,3,2.5,4.8,3.3c1.8,0.8,3.8,1.2,5.9,1.2c1.6,0,3.1-0.2,4.6-0.7l-2.9-3.7c-0.5,0.1-1.1,0.1-1.6,0.1c-1.4,0-2.8-0.3-4.1-0.9
			c-1.3-0.6-2.4-1.4-3.3-2.3c-1-1-1.7-2.2-2.3-3.5c-0.6-1.3-0.8-2.8-0.8-4.3c0-1.5,0.3-2.9,0.8-4.3c0.6-1.3,1.3-2.5,2.3-3.5
			c1-1,2.1-1.8,3.3-2.4c1.3-0.6,2.6-0.9,4.1-0.9c1.4,0,2.8,0.3,4.1,0.9c1.3,0.6,2.4,1.4,3.4,2.4c1,1,1.7,2.2,2.3,3.5
			c0.6,1.3,0.8,2.8,0.8,4.3c0,1.5-0.3,2.9-0.8,4.3c-0.6,1.3-1.3,2.5-2.3,3.5c-0.4,0.4-0.9,0.8-1.4,1.2l2.7,3.5
			c0.7-0.5,1.3-1,1.9-1.6c1.4-1.4,2.4-3,3.2-4.8c0.8-1.8,1.2-3.8,1.2-5.9C274.2,61.6,273.8,59.6,273,57.7z"/>
	</g>
</g>
</svg>
