<?xml version="1.0" encoding="utf-8"?>
<!-- Generator: Adobe Illustrator 15.0.0, SVG Export Plug-In . SVG Version: 6.00 Build 0)  -->
<!DOCTYPE svg PUBLIC "-//W3C//DTD SVG 1.1//EN" "http://www.w3.org/Graphics/SVG/1.1/DTD/svg11.dtd">
<svg version="1.1" id="Layer_1" xmlns="http://www.w3.org/2000/svg" xmlns:xlink="http://www.w3.org/1999/xlink" x="0px" y="0px"
	 width="1600px" height="1200px" viewBox="0 0 1600 1200" enable-background="new 0 0 1600 1200" xml:space="preserve">
<g>
	<linearGradient id="SVGID_1_" gradientUnits="userSpaceOnUse" x1="654.0938" y1="528.9404" x2="945.9043" y2="528.9404">
		<stop  offset="0" style="stop-color:#3C9CD7"/>
		<stop  offset="0.2727" style="stop-color:#6569B0"/>
		<stop  offset="0.6485" style="stop-color:#865B99"/>
		<stop  offset="1" style="stop-color:#DA1C5C"/>
	</linearGradient>
	<path fill="url(#SVGID_1_)" d="M931.443,436.352l-84.146-48.583l-14.462-8.34l-32.843-18.965l-32.841,18.965l-14.461,8.352
		l-84.137,48.571l-14.461,8.353v56.441v55.593v56.442l14.461,8.351l84.137,48.573l14.461,8.35l32.841,18.964l32.843-18.964
		l14.462-8.342l84.146-48.581l14.461-8.351v-56.442v-55.593v-56.441L931.443,436.352z M931.443,604.839l-84.146,48.581
		l-14.462,8.352l-27.694,15.987l-5.136,2.958l-5.148-2.958l-27.705-15.997l-14.461-8.35l-84.137-48.573v-39.751v-55.603
		l84.137-48.571v136.045v16.702l14.461,8.351l32.841,18.965l32.843-18.965l14.462-8.341l84.146-48.583V604.839z M832.836,605.319
		l-27.694,15.986l-5.136,2.959l-5.148-2.959l-27.705-15.995V452.562l27.705-15.995l5.148-2.959l5.136,2.959l27.694,15.987V605.319z
		 M931.443,548.388l-84.146,48.581V460.904v-16.692l-14.462-8.34l-32.843-18.963l-32.841,18.963l-14.461,8.35l-84.137,48.571
		v-39.749l84.137-48.571l14.461-8.352l27.705-15.997l5.148-2.957l5.136,2.957l27.694,15.987l14.462,8.35l84.146,48.583v39.749
		V548.388z"/>
	<g>
		<path fill="#58595B" d="M458.034,753.766h12.487v85.535h-12.487V753.766z"/>
		<path fill="#58595B" d="M500.744,839.536h-11.787v-87.172l55.314,66.167v-64.648h11.786v85.653h-11.437l-43.877-54.03V839.536z"/>
		<path fill="#58595B" d="M616.736,827.518c4.977,0,9.549-1.186,13.711-3.562c4.162-2.372,7.566-5.542,10.211-9.51l10.153,7.585
			c-3.892,5.293-8.772,9.494-14.646,12.604c-5.875,3.112-12.351,4.666-19.43,4.666c-5.834,0-11.318-1.127-16.455-3.382
			c-5.134-2.255-9.608-5.311-13.418-9.16c-3.813-3.853-6.828-8.364-9.045-13.538c-2.217-5.174-3.326-10.716-3.326-16.627
			s1.109-11.455,3.326-16.631c2.217-5.171,5.231-9.685,9.045-13.536c3.81-3.851,8.285-6.902,13.418-9.161
			c5.136-2.255,10.621-3.383,16.455-3.383c7.079,0,13.555,1.557,19.43,4.668c5.873,3.11,10.754,7.313,14.646,12.601l-10.153,7.586
			c-2.645-3.967-6.049-7.135-10.211-9.511c-4.162-2.371-8.734-3.558-13.711-3.558c-4.046,0-7.839,0.816-11.379,2.451
			c-3.539,1.633-6.631,3.85-9.275,6.65c-2.646,2.801-4.747,6.069-6.302,9.803c-1.558,3.733-2.335,7.741-2.335,12.021
			c0,4.278,0.777,8.282,2.335,12.018c1.555,3.735,3.655,7.001,6.302,9.803c2.644,2.801,5.736,5.017,9.275,6.652
			C608.897,826.699,612.69,827.518,616.736,827.518z"/>
		<path fill="#58595B" d="M754.143,790.469c-0.215-1.668-0.543-3.316-0.963-4.921c-0.502-1.988-1.156-3.934-1.954-5.814
			c-0.901-2.139-1.944-4.154-3.132-6.069c-1.688-2.785-3.685-5.343-5.967-7.645c-3.858-3.89-8.383-6.959-13.602-9.222
			c-5.209-2.252-10.776-3.378-16.682-3.378c-5.916,0-11.452,1.126-16.631,3.378c-5.179,2.263-9.681,5.332-13.541,9.222
			c-3.847,3.887-6.877,8.463-9.097,13.714c-2.222,5.249-3.326,10.868-3.326,16.854c0,5.917,1.104,11.482,3.326,16.691
			c2.22,5.21,5.25,9.764,9.097,13.653c3.86,3.89,8.362,6.961,13.541,9.222c5.179,2.251,10.715,3.378,16.631,3.378
			c5.905,0,11.473-1.127,16.682-3.378c5.219-2.261,9.743-5.332,13.602-9.222c2.282-2.313,4.278-4.851,5.977-7.635
			c1.188-1.892,2.221-3.899,3.122-6.019c0.778-1.821,1.412-3.684,1.914-5.597c0.46-1.72,0.798-3.471,1.032-5.261
			c0.256-1.903,0.38-3.849,0.38-5.834C754.552,794.5,754.418,792.465,754.143,790.469z M739.148,808.623
			c-1.555,3.758-3.674,7.032-6.354,9.827c-2.692,2.794-5.845,4.992-9.458,6.62c-3.611,1.629-7.449,2.447-11.492,2.447
			s-7.86-0.818-11.442-2.447c-3.57-1.628-6.702-3.826-9.385-6.62c-2.692-2.795-4.809-6.069-6.364-9.827
			c-1.557-3.755-2.335-7.767-2.335-12.035c0-4.258,0.778-8.289,2.335-12.086c1.556-3.797,3.672-7.112,6.364-9.938
			c2.683-2.835,5.814-5.054,9.385-6.692c3.582-1.617,7.399-2.435,11.442-2.435s7.881,0.817,11.492,2.435
			c3.613,1.639,6.766,3.857,9.458,6.692c2.681,2.826,4.8,6.142,6.354,9.938c1.557,3.797,2.334,7.828,2.334,12.086
			C741.482,800.856,740.705,804.868,739.148,808.623z"/>
		<path fill="#58595B" d="M888.748,839.536h-11.785v-87.172l55.313,66.167v-64.648h11.785v85.653h-11.436l-43.877-54.03V839.536z"/>
		<path fill="#58595B" d="M962.496,753.766h12.486v85.535h-12.486V753.766z"/>
		<path fill="#58595B" d="M993.42,753.766h54.613v12.021h-21.124v73.399h-12.366v-73.399H993.42V753.766z"/>
		<path fill="#58595B" d="M1099.255,753.416c5.911,0,11.473,1.128,16.688,3.384c5.212,2.257,9.744,5.33,13.596,9.22
			c3.851,3.889,6.884,8.461,9.1,13.71c2.217,5.251,3.328,10.874,3.328,16.864c0,5.911-1.111,11.475-3.328,16.686
			c-2.216,5.214-5.249,9.764-9.1,13.653c-3.852,3.89-8.384,6.965-13.596,9.218c-5.215,2.257-10.776,3.386-16.688,3.386
			c-5.912,0-11.455-1.129-16.63-3.386c-5.174-2.253-9.684-5.328-13.536-9.218c-3.85-3.89-6.884-8.439-9.103-13.653
			c-2.218-5.211-3.324-10.774-3.324-16.686c0-5.99,1.106-11.613,3.324-16.864c2.219-5.249,5.253-9.821,9.103-13.71
			c3.853-3.89,8.362-6.963,13.536-9.22C1087.8,754.544,1093.343,753.416,1099.255,753.416z M1099.255,827.518
			c4.045,0,7.877-0.814,11.496-2.442c3.614-1.629,6.767-3.837,9.451-6.625c2.684-2.791,4.803-6.065,6.359-9.825
			c1.554-3.759,2.334-7.769,2.334-12.031c0-4.264-0.78-8.295-2.334-12.092c-1.557-3.797-3.676-7.11-6.359-9.943
			c-2.685-2.826-5.837-5.053-9.451-6.684c-3.619-1.625-7.451-2.438-11.496-2.438c-4.046,0-7.858,0.813-11.436,2.438
			c-3.579,1.631-6.71,3.857-9.394,6.684c-2.685,2.833-4.805,6.146-6.36,9.943c-1.558,3.797-2.336,7.828-2.336,12.092
			c0,4.263,0.778,8.272,2.336,12.031c1.556,3.76,3.676,7.034,6.36,9.825c2.684,2.788,5.814,4.996,9.394,6.625
			C1091.396,826.703,1095.209,827.518,1099.255,827.518z"/>
		<path fill="#58595B" d="M720.721,800.038c0.448-1.035,0.666-2.162,0.666-3.454c0-1.372-0.228-2.576-0.695-3.677
			c-0.521-1.213-1.197-2.23-2.066-3.099c-0.866-0.865-1.885-1.545-3.111-2.075c-1.088-0.458-2.291-0.688-3.664-0.688
			c-1.323,0-2.461,0.222-3.58,0.697c-1.21,0.521-2.228,1.2-3.096,2.065c-0.879,0.878-1.547,1.879-2.043,3.06
			c-0.492,1.148-0.718,2.32-0.718,3.716c0,1.323,0.222,2.462,0.694,3.579c0.52,1.219,1.174,2.205,2.068,3.099
			c0.876,0.879,1.877,1.543,3.059,2.041c1.147,0.492,2.289,0.718,3.615,0.718h0.307c1.254,0,2.311-0.211,3.322-0.66
			c1.232-0.543,2.244-1.231,3.11-2.104C719.48,802.343,720.18,801.287,720.721,800.038z"/>
		<path fill="#58595B" d="M1108.13,800.038c0.451-1.035,0.668-2.162,0.668-3.454c0-1.372-0.227-2.576-0.695-3.677
			c-0.521-1.213-1.197-2.23-2.065-3.099c-0.867-0.865-1.886-1.545-3.11-2.075c-1.089-0.458-2.291-0.688-3.664-0.688
			c-1.322,0-2.461,0.222-3.579,0.697c-1.212,0.521-2.229,1.2-3.098,2.065c-0.879,0.878-1.547,1.879-2.041,3.06
			c-0.492,1.148-0.72,2.32-0.72,3.716c0,1.323,0.222,2.462,0.695,3.579c0.519,1.219,1.174,2.205,2.065,3.099
			c0.878,0.879,1.88,1.543,3.062,2.041c1.146,0.492,2.289,0.718,3.615,0.718h0.306c1.255,0,2.311-0.211,3.322-0.66
			c1.231-0.543,2.243-1.231,3.109-2.104C1106.893,802.343,1107.593,801.287,1108.13,800.038z"/>
		<path fill="#58595B" d="M858.342,839.536l-37.429-47.109c-0.573-0.721-1.184-1.242-1.925-1.646
			c-0.807-0.435-1.617-0.692-2.463-0.791c-0.857-0.099-1.688-0.029-2.543,0.21c-0.838,0.229-1.574,0.612-2.33,1.217
			c-0.722,0.571-1.244,1.183-1.646,1.921c-0.441,0.811-0.691,1.594-0.793,2.463c-0.099,0.855-0.027,1.689,0.212,2.546
			c0.229,0.838,0.601,1.555,1.172,2.276l0.132,0.166c0.002,0.004,0.006,0.01,0.01,0.014l30.776,38.733H858.342z"/>
		<path fill="#58595B" d="M855.084,779.729c-2.217-5.249-5.252-9.821-9.103-13.71c-3.851-3.89-8.384-6.963-13.593-9.22
			c-5.217-2.256-10.777-3.384-16.689-3.384c-5.913,0-11.455,1.128-16.629,3.384c-5.174,2.257-9.684,5.33-13.538,9.22
			c-3.851,3.889-6.883,8.461-9.101,13.71c-2.217,5.251-3.326,10.874-3.326,16.864c0,5.911,1.109,11.475,3.326,16.686
			c2.218,5.214,5.25,9.764,9.101,13.653c3.854,3.89,8.364,6.965,13.538,9.218c5.174,2.257,10.716,3.386,16.629,3.386
			c4.48,0,8.76-0.65,12.839-1.947l-8.289-10.431c-1.485,0.236-3,0.359-4.55,0.359c-4.047,0-7.857-0.814-11.436-2.442
			c-3.58-1.629-6.711-3.837-9.395-6.625c-2.685-2.791-4.803-6.065-6.358-9.825c-1.56-3.759-2.334-7.769-2.334-12.031
			c0-4.264,0.774-8.295,2.334-12.092c1.556-3.797,3.674-7.11,6.358-9.943c2.684-2.826,5.814-5.053,9.395-6.684
			c3.578-1.625,7.389-2.438,11.436-2.438c4.044,0,7.878,0.813,11.495,2.438c3.616,1.631,6.767,3.857,9.45,6.684
			c2.685,2.833,4.803,6.146,6.36,9.943s2.337,7.828,2.337,12.092c0,4.263-0.779,8.272-2.337,12.031
			c-1.558,3.76-3.676,7.034-6.36,9.825c-1.182,1.229-2.472,2.328-3.838,3.332l7.752,9.755c1.933-1.383,3.747-2.911,5.423-4.604
			c3.851-3.89,6.886-8.439,9.103-13.653c2.217-5.211,3.324-10.774,3.324-16.686C858.408,790.604,857.301,784.98,855.084,779.729z"/>
	</g>
</g>
</svg>
